<?xml version="1.0" encoding="utf-8"?>
<!-- Generator: Adobe Illustrator 24.0.0, SVG Export Plug-In . SVG Version: 6.00 Build 0)  -->
<svg version="1.1" id="Capa_1" xmlns="http://www.w3.org/2000/svg" xmlns:xlink="http://www.w3.org/1999/xlink" x="0px" y="0px"
	 viewBox="0 0 124 120" enable-background="new 0 0 124 120" xml:space="preserve">
<g>
	<path opacity="0.6" fill="#020230" enable-background="new    " d="M79.5,106.3l-0.2-0.3l5.8-3.4c0.7-0.4,1.6-0.4,2.3,0l4.8,2.9
		l-0.2,0.3l-4.8-2.9c-0.6-0.4-1.3-0.4-1.9,0L79.5,106.3z"/>
	<path opacity="0.6" fill="#020230" enable-background="new    " d="M96.7,105.3l-0.2-0.3l15-8.9c0.1-0.1,0.2-0.2,0.2-0.4
		c0-0.2-0.1-0.3-0.2-0.4l-5-3.1l0.2-0.3l5,3.1c0.3,0.2,0.4,0.4,0.4,0.7c0,0.3-0.2,0.6-0.4,0.7L96.7,105.3z"/>
	<path opacity="0.6" fill="#020230" enable-background="new    " d="M80.4,93.1l-0.2-0.3l14.6-8.4c0.2-0.1,0.2-0.2,0.2-0.4
		c0-0.2-0.1-0.3-0.2-0.4l-7.7-4.4c-1.1-0.6-1.7-1.7-1.7-3V50.6c0-1.1,0.5-2,1.4-2.6l1.2-0.8l0.2,0.3L87,48.3
		c-0.8,0.5-1.2,1.4-1.2,2.3v25.5c0,1.1,0.6,2.1,1.5,2.6l7.7,4.4c0.3,0.2,0.4,0.4,0.4,0.8c0,0.3-0.2,0.6-0.4,0.8L80.4,93.1z"/>
	<linearGradient id="SVGID_1_" gradientUnits="userSpaceOnUse" x1="79.0249" y1="98.9424" x2="92.4868" y2="98.9424">
		<stop  offset="0" style="stop-color:#E39A65"/>
		<stop  offset="0.2255" style="stop-color:#A92FFB"/>
		<stop  offset="0.4832" style="stop-color:#891CFB"/>
		<stop  offset="0.7619" style="stop-color:#6507FA"/>
		<stop  offset="1" style="stop-color:#0D0C6F"/>
	</linearGradient>
	<path fill="url(#SVGID_1_)" d="M79.4,101.2c-0.1,0-0.3-0.1-0.3-0.2c-0.1-0.2,0-0.4,0.1-0.5l5.8-3.4c0.8-0.5,1.7-0.5,2.5,0l4.8,2.9
		c0.2,0.1,0.2,0.3,0.1,0.5c-0.1,0.2-0.3,0.2-0.5,0.1l-4.8-2.9c-0.5-0.3-1.2-0.3-1.7,0l-5.8,3.4C79.5,101.2,79.5,101.2,79.4,101.2z"
		/>
	<path opacity="0.6" fill="#020230" enable-background="new    " d="M71.2,119.3L39,100.7c-1.1-0.6-1-1.8,0.3-2.5l0,0
		c1.3-0.7,3.2-0.8,4.4-0.2l32.2,18.6c1.1,0.6,1,1.8-0.3,2.5l0,0C74.3,119.9,72.3,120,71.2,119.3z"/>
	<g>
		<g>
			<g>
				<path opacity="0.6" fill="#020230" enable-background="new    " d="M102,70.1c-0.2-0.1-0.5-0.3-0.8-0.4l0,0l-1.5-0.7l0.1,0.3
					c-1.1-0.2-2.3-0.2-3.5,0l0.1-0.3l-1.7,0.8l0,0c-0.2,0.1-0.4,0.2-0.7,0.3c-2.2,1.3-2.2,3.3,0,4.6c2.2,1.3,5.7,1.3,7.9,0
					C104.2,73.4,104.2,71.4,102,70.1z"/>
				<path fill="#5793CE" d="M99.9,71.3c-1,0.6-2.7,0.6-3.7,0c-1-0.6-1-1.5,0-2.1c1-0.6,2.7-0.6,3.7,0
					C100.9,69.8,100.9,70.7,99.9,71.3z"/>
			</g>
			<g>
				<path fill="#5793CE" d="M98.1,70.6L98.1,70.6c-0.5,0-0.9-0.4-0.9-0.9V58.5h1.8v11.3C98.9,70.2,98.5,70.6,98.1,70.6z"/>
				<path fill="#5793CE" d="M98.7,58.9c-0.4,0.2-0.9,0.2-1.3,0c-0.4-0.2-0.4-0.5,0-0.7c0.4-0.2,0.9-0.2,1.3,0
					C99,58.4,99,58.7,98.7,58.9z"/>
			</g>
			<path fill="#D4ECFF" d="M98.1,58.9L98.1,58.9c-0.4,0-0.7-0.3-0.7-0.7V47.6h1.4v10.6C98.8,58.6,98.5,58.9,98.1,58.9z"/>
			<g>
				<path fill="#396CAA" d="M108.4,53.1l0-0.4l0.6-0.1l0.7-0.5c0.1-0.1,0.3-0.1,0.4,0l0.5,0.3l0.5-0.1v0.4l0,0c0,0,0,0.1-0.1,0.1
					l-1.5,0.7c-0.1,0.1-0.3,0-0.4,0l-0.5-0.3C108.5,53.2,108.4,53.2,108.4,53.1L108.4,53.1z"/>
				<path fill="#5793CE" d="M108.5,52.6l1.2-0.9c0.1-0.1,0.3-0.1,0.4,0l0.9,0.5c0.1,0.1,0.1,0.2,0,0.2l-1.5,0.7
					c-0.1,0.1-0.3,0-0.4,0l-0.5-0.3C108.4,52.8,108.4,52.7,108.5,52.6z"/>
				<g>
					<path fill="#D4ECFF" d="M106.5,54.6c0.2,0,0.3,0,0.5-0.1l1.8-1.1c0.1-0.1,0.1-0.2,0.1-0.3c-0.1-0.1-0.2-0.1-0.3-0.1l-1.8,1.1
						c-0.1,0.1-0.4,0.1-0.5,0l-3-1.8c-0.1-0.1-0.2,0-0.3,0.1c-0.1,0.1,0,0.2,0.1,0.3l3,1.8C106.2,54.6,106.3,54.6,106.5,54.6z"/>
				</g>
			</g>
			<g>
				<radialGradient id="SVGID_2_" cx="69.4783" cy="48.5389" r="18.1397" gradientUnits="userSpaceOnUse">
					<stop  offset="0" style="stop-color:#01C8EF"/>
					<stop  offset="8.940536e-02" style="stop-color:#03BEE9"/>
					<stop  offset="0.2388" style="stop-color:#08A5D7"/>
					<stop  offset="0.4288" style="stop-color:#107BBB"/>
					<stop  offset="0.4457" style="stop-color:#1177B8"/>
					<stop  offset="1" style="stop-color:#112564"/>
				</radialGradient>
				<polygon fill="url(#SVGID_2_)" points="88.9,50.7 91.9,49 90.2,48.3 88.8,49.3 				"/>
				<path fill="#5793CE" d="M107.8,48.2c-0.2-0.1-0.3-0.2-0.5-0.3l-6.3-4.6c-1.1-0.8-2.3-1-3.2-0.6c0,0,0,0-0.1,0l0,0l-8.6,5
					l0.8,0.3l3,1.4l4.1,2.9l3.3,1.7l0.1,0c0.8-0.6,1.6-1.2,2.1-2.1c0.8-1.4,3-1.8,4.4-3c0.1,0.1,0.3,0.2,0.4,0.2
					C107.5,49,107.6,48.6,107.8,48.2z"/>
				<path fill="#396CAA" d="M110.5,46.1c-0.1,0-0.3,0-0.4,0.1l0,0l-8.5,4.9l0.3,1.3l0.3-0.2c-0.5,0.8-1.2,1.3-1.9,1.8l1,0.2l8.3-4.8
					c0,0,0.1,0,0.1,0c0.1-0.1,0.2-0.1,0.3-0.2l0,0l0,0c0.6-0.5,1-1.3,1-2.4v-0.1C111.1,46.4,110.9,46.1,110.5,46.1z"/>
				<g>
					<path fill="#EAEAEA" d="M98.9,42.5c0.5,0,1.1,0.2,1.7,0.5C100,42.7,99.5,42.5,98.9,42.5z"/>
					<path fill="#5793CE" d="M102.8,51.5L102.8,51.5c0-0.4-0.3-0.7-0.6-0.7c-0.3,0-0.6,0.3-0.6,0.6v0.1c0,0.8-0.2,1.3-0.7,1.6
						c-0.5,0.2-1.2,0.1-2-0.5L92.7,48c-1-0.7-2-1-2.8-0.7l5.2-3l-6,3.5l0.8,0.3l3,1.4l4.1,2.9l3.3,1.7l0.1,0
						c0.8-0.6,1.6-1.2,2.1-2.1C102.6,51.8,102.7,51.7,102.8,51.5C102.8,51.6,102.8,51.5,102.8,51.5z"/>
				</g>
				<g>
					<path fill="#D4ECFF" d="M100.3,54.6c-0.7,0-1.4-0.3-2.2-0.8l-6.3-4.6c-0.8-0.6-1.5-0.7-2-0.5c-0.4,0.2-0.7,0.8-0.7,1.6
						c0,0.3-0.3,0.6-0.6,0.6c-0.3,0-0.6-0.3-0.6-0.6c0-1.2,0.5-2.2,1.3-2.6c0.9-0.5,2.1-0.2,3.2,0.6l6.3,4.6c0.8,0.6,1.5,0.7,2,0.5
						c0.4-0.2,0.7-0.8,0.7-1.6v-0.1c0-0.3,0.3-0.6,0.6-0.6c0.3,0,0.6,0.3,0.6,0.6v0.1c0,1.2-0.5,2.2-1.3,2.6
						C101,54.5,100.6,54.6,100.3,54.6z"/>
				</g>
			</g>
		</g>
		<g>
			<g>
				<path fill="#173D7A" d="M95.4,64.8c0,0-1.2-0.6-1.9,0.3c-0.7,0.9-1.8,3-1.8,4.4c0,1.4,1.1,1.3,1.8,1c0.7-0.3,2.7-3.2,2.8-3.8
					c0.1-0.6-0.1-1.3-0.3-1.5C95.7,65.1,95.4,64.8,95.4,64.8z"/>
				<path fill="#5793CE" d="M95.6,64.5l0.1,1.2c0,0.3-0.1,0.5-0.3,0.6c-0.2,0.1-0.5,0.2-0.9,0.1c-0.9-0.1-1-0.4-1-1.6
					C93.3,63.7,95.6,64.5,95.6,64.5z"/>
				<g>
					<path fill="#173D7A" d="M91,62.5c0,0-1.2-0.6-1.9,0.3c-0.7,0.9-1.8,3-1.8,4.4c0,1.4,1.1,1.3,1.8,1c0.7-0.3,2.7-3.2,2.8-3.8
						c0.1-0.6-0.1-1.3-0.3-1.5C91.4,62.7,91,62.5,91,62.5z"/>
					<path fill="#5793CE" d="M91.3,62.2l0.1,1.2c0,0.3-0.1,0.5-0.3,0.6c-0.2,0.1-0.5,0.2-0.9,0.1c-0.9-0.1-1-0.4-1-1.6
						C89,61.4,91.3,62.2,91.3,62.2z"/>
					<path fill="#FDD762" d="M101.8,39.8c-0.3-5.7-6.2,0.8-6.2,0.8l-4,3.9l-3.6,3.9c-0.7,0.8-1,1.8-0.9,2.8l1.4,11
						c0.1,0.5,0.5,0.9,1.1,0.9c0.2,0,0.3,0,0.5,0c1.3-0.2,1.2-1.4,1.2-1.4l-0.3-10.3l7.5-4.5C98.8,46.9,102.2,45.4,101.8,39.8z"/>
				</g>
				<path fill="#FDD762" d="M106.1,41.9c-0.3-5.7-6.2,0.8-6.2,0.8l-4,3.9l-3.6,3.9c-0.7,0.8-1,1.8-0.9,2.8l1.4,11
					c0.1,0.5,0.5,0.9,1.1,0.9c0.2,0,0.3,0,0.5,0c1.3-0.2,1.2-1.4,1.2-1.4l-0.3-10.3l7.5-4.5C103.1,49.1,106.5,47.6,106.1,41.9z"/>
				<path fill="#983BE9" d="M102.7,23.7c4.4,1.8,4.3,4.4,4.3,4.4s-0.9,9.5-0.6,15.9c0.1,2.7-14.1,2.9-12-4.2
					c2.5-8.4,1.6-15.1,2.7-16.2C98.4,22.6,101.6,23.2,102.7,23.7z"/>
				
					<ellipse transform="matrix(0.2494 -0.9684 0.9684 0.2494 51.8785 117.7958)" fill="#FFC2B0" cx="101.9" cy="25.4" rx="1.7" ry="2.3"/>
				<path fill="#FFFFFF" d="M102.3,27.4c-0.3,0-0.5,0-0.8-0.1c-0.6-0.2-1.2-0.5-1.5-0.9c-0.4-0.5-0.5-1-0.4-1.5
					c0.3-1,1.5-1.5,2.9-1.2c0.6,0.2,1.2,0.5,1.5,0.9c0.4,0.5,0.5,1,0.4,1.5c-0.1,0.5-0.5,0.9-1.1,1.1
					C103,27.3,102.6,27.4,102.3,27.4z M101.6,23.9c-0.8,0-1.5,0.4-1.7,1c-0.1,0.4,0,0.8,0.3,1.1c0.3,0.4,0.8,0.7,1.3,0.8
					c0.5,0.1,1.1,0.1,1.5-0.1c0.4-0.2,0.7-0.5,0.8-0.8v0c0.1-0.4,0-0.8-0.3-1.1c-0.3-0.4-0.8-0.7-1.3-0.8
					C102.1,24,101.8,23.9,101.6,23.9z"/>
				<path fill="#FFC2B0" d="M100.9,23.5c0,0,0,0.2,0,1.6c0,0.4,1.5,0.8,1.9,0.5c0.4-0.4,0.2-0.8,0.3-2.3
					C103.2,21.7,100.9,23.5,100.9,23.5z"/>
				<path fill="#EA9C92" d="M103.2,23.2c0,0-0.4,1.4-2.2,1.9l0-1.3L103.2,23.2z"/>
				<path fill="#FFC2B0" d="M104.3,19.7c0.5,1.8-0.6,3.7-2.4,4.1c-1.8,0.5-3.7-0.6-4.1-2.4c-0.5-1.8,0.6-3.7,2.4-4.1
					C102,16.8,103.9,17.9,104.3,19.7z"/>
				<path fill="#EA9C92" d="M101.8,20.7c0,0-1.9,0.8-3.2,0.8c-1.3,0-1-1.1-1-1.1l3.8-0.6L101.8,20.7z"/>
				<path fill="#173D7A" d="M98.3,20.9c0,0,1.6-0.7,3-0.4c0.3,0.1,0.6,0.2,0.9,0.5c0.1,0.1,0.2,0.2,0.3,0.2c0.3,0.1,0.7-1,1.2-1
					c0.5,0,0.8,0.3,0.4,1c-0.4,0.6-0.3,1.4-0.1,1.5c0.2,0.1,2.2-1.4,0.4-4.8c-1.7-3.4-6.1-1.6-6.8-0.9c0,0-0.7,0.6-1.3,0.1
					C96.2,16.9,95.6,21.9,98.3,20.9z"/>
				<path fill="#FFC2B0" d="M104.6,35.1v2.6c0,0.3-0.1,0.6-0.3,0.8l-5.3,4.8l0.6,0.9l7-5.1c0.3-0.2,0.5-0.6,0.6-1l0.5-4.5
					L104.6,35.1z"/>
				<path fill="#983BE9" d="M106.7,26.8c0,0,1.6,2.4,2.2,8.8c0,0-2.7,0.9-4.3,0.4S106.7,26.8,106.7,26.8z"/>
				<path fill="#721BD5" d="M104.3,29.9c0,0-0.6,3.4-0.7,4.9c0,0.4,0.3,0.8,0.7,1l0,0V29.9z"/>
			</g>
			<g>
				<path fill="#173D7A" d="M102.9,46.6l-1.2-0.2l-7.5-4.4c-0.2-0.1-0.7-0.1-0.9,0l-5.3,3.1l-0.7-0.1v0.7l0,0c0,0.1,0,0.2,0.2,0.2
					l8.6,4.9c0.2,0.1,0.7,0.1,0.9,0l5.8-3.4c0.2-0.1,0.2-0.2,0.2-0.3l0,0V46.6z"/>
				<path fill="#396CAA" d="M97.2,43.8l-0.5-0.3h-5.9l-2.9,1.7l-0.7-0.1v0.7l0,0c0,0.1,0,0.2,0.2,0.2l8.6,4.9
					c0.1,0.1,0.3,0.1,0.5,0.1L97.2,43.8z"/>
				<path fill="#5793CE" d="M87.5,45.2l-0.3,0v0.7l0,0c0,0.1,0,0.2,0.2,0.2l0.2,0.1V45.2z"/>
				<path fill="#274F89" d="M96,51.1c0.2,0.1,0.6,0.1,0.8,0v-1.2H96V51.1z"/>
				<path fill="#FFFFFF" d="M95.9,50.3l-8.6-4.9c-0.2-0.1-0.2-0.4,0.1-0.5l5.8-3.4c0.3-0.2,0.7-0.2,0.9,0l8.6,4.9
					c0.2,0.1,0.2,0.4-0.1,0.5l-5.8,3.4C96.6,50.4,96.1,50.5,95.9,50.3z"/>
				<path fill="#D4ECFF" d="M95.7,49.6l-7.1-4.1c-0.2-0.1-0.2-0.3,0.1-0.5l3.1-1.8c0.2-0.1,0.6-0.1,0.8,0l7.1,4.1
					c0.2,0.1,0.2,0.3-0.1,0.5l-3.1,1.8C96.3,49.7,95.9,49.7,95.7,49.6z"/>
			</g>
			<path fill="#FFC2B0" d="M93.6,41.3l-0.1,0.6c-0.1,0.5-0.1,1,0,1.5l0.1,0.5c0.1,0.3,0.3,0.5,0.6,0.6l0,0c0.2,0,0.4-0.1,0.5-0.4
				l0.1-1.3c0,0,0.3,0.4,0.5,0.4c0.2,0-0.2-1.3-0.5-2C94.4,40.6,93.6,41.3,93.6,41.3z"/>
			<path fill="#FFC2B0" d="M96.5,31.9l-0.9,1.8c-0.2,0.4-0.3,0.9-0.4,1.4l-0.4,6.2l-1.2,0l-0.5-7c0-0.2,0-0.4,0-0.6l0.6-3.5
				L96.5,31.9z"/>
			<g>
				<path fill="#173D7A" d="M95.6,50.8l-0.7-0.9l-7.5-4.4c-0.2-0.1-0.4-0.5-0.4-0.8l0-6.2l-0.4-0.6l0.4-0.2l0,0c0.1-0.1,0.2,0,0.3,0
					l8.5,4.9c0.2,0.1,0.4,0.5,0.4,0.8l0,6.7c0,0.2-0.1,0.3-0.2,0.4l0,0L95.6,50.8z"/>
				<path fill="#396CAA" d="M90.4,47.2l-0.5-0.3l-2.9-5.1l0-3.4l-0.4-0.6l0.4-0.2l0,0c0.1-0.1,0.2,0,0.3,0l8.5,4.9
					c0.1,0.1,0.2,0.2,0.3,0.4L90.4,47.2z"/>
				<path fill="#5793CE" d="M86.7,38.2l-0.2-0.3l0.4-0.2l0,0c0.1-0.1,0.2,0,0.3,0l0.2,0.1L86.7,38.2z"/>
				<path fill="#274F89" d="M95.8,42.7c0.2,0.2,0.3,0.4,0.4,0.7l-0.8,0.5l-0.4-0.7L95.8,42.7z"/>
				<path fill="#5793CE" d="M95.3,42.9l-8.5-4.9c-0.2-0.1-0.4,0-0.4,0.3l0,6.7c0,0.3,0.2,0.7,0.4,0.8l8.5,4.9c0.2,0.1,0.4,0,0.4-0.3
					l0-6.7C95.8,43.4,95.6,43,95.3,42.9z"/>
			</g>
			<path fill="#FFC2B0" d="M99.5,44.2l-0.1,0.3c-0.2,0.3-0.4,0.6-0.7,0.8l-0.8,0.5c-0.3,0.2-0.6,0.2-0.9,0c0,0,0,0,0,0
				c-0.3-0.2-0.3-0.6-0.1-0.8l0.9-0.9c0,0-0.5,0.4-0.6,0.2c-0.1-0.1,0.5-0.7,0.9-0.7c0.4,0,0.9-0.4,0.9-0.4L99.5,44.2z"/>
			<path fill="#983BE9" d="M97.3,23.6c0,0-3.3,3.5-4.6,6.8c0,0,1.1,2,3.8,2.8C99.3,34,97.3,23.6,97.3,23.6z"/>
			<path fill="#721BD5" d="M95.9,33l0.5-5.1l-1.2,4.8C95.4,32.8,95.7,32.9,95.9,33z"/>
			<path fill="#FFFFFF" d="M99.7,22.9l-0.9-0.2c0,0,0.4,0.7,1,0.8c0.6,0.2,0.7-0.3,0.7-0.3L99.7,22.9z"/>
		</g>
	</g>
	<radialGradient id="SVGID_3_" cx="58.2368" cy="58.7121" r="44.4752" gradientUnits="userSpaceOnUse">
		<stop  offset="0" style="stop-color:#E39A65"/>
		<stop  offset="0.4742" style="stop-color:#A92FFB"/>
		<stop  offset="0.5947" style="stop-color:#891CFB"/>
		<stop  offset="0.8056" style="stop-color:#6507FA"/>
		<stop  offset="1" style="stop-color:#0D0C6F"/>
	</radialGradient>
	<path fill="url(#SVGID_3_)" d="M77,20.8l-34.7-20c-1.1-0.7-2.2-0.7-3-0.2l0,0L35,3.1l2.9,0.5c0,0.1,0,0.3,0,0.5V86
		c0,3.2,2,7,4.4,8.4l34.2,19.8c-0.3,1-1,3-1,3l4.3-2.5l0,0c1-0.5,1.6-1.8,1.6-3.6V29.2C81.4,26,79.5,22.2,77,20.8z"/>
	<g>
		<polygon opacity="0.6" fill="#020230" enable-background="new    " points="109.7,91.1 104.4,88.1 99.2,91.1 104.4,94.1 		"/>
		<linearGradient id="SVGID_4_" gradientUnits="userSpaceOnUse" x1="104.4397" y1="87.7951" x2="110.6658" y2="87.7951">
			<stop  offset="0" style="stop-color:#A92FFB"/>
			<stop  offset="0.2619" style="stop-color:#8C1EFB"/>
			<stop  offset="0.4621" style="stop-color:#891CFB"/>
			<stop  offset="0.7989" style="stop-color:#6507FA"/>
		</linearGradient>
		<polygon fill="url(#SVGID_4_)" points="104.4,91.3 104.4,87.9 110.7,84.3 110.7,87.7 		"/>
		<linearGradient id="SVGID_5_" gradientUnits="userSpaceOnUse" x1="98.2137" y1="87.7951" x2="104.4397" y2="87.7951">
			<stop  offset="0" style="stop-color:#E39A65"/>
			<stop  offset="0.4054" style="stop-color:#A92FFB"/>
			<stop  offset="0.6314" style="stop-color:#891CFB"/>
		</linearGradient>
		<polygon fill="url(#SVGID_5_)" points="104.4,87.9 98.2,84.3 98.2,87.7 104.4,91.3 		"/>
		<linearGradient id="SVGID_6_" gradientUnits="userSpaceOnUse" x1="98.2137" y1="84.3027" x2="110.6658" y2="84.3027">
			<stop  offset="0" style="stop-color:#E39A65"/>
			<stop  offset="0.2255" style="stop-color:#A92FFB"/>
			<stop  offset="0.4832" style="stop-color:#891CFB"/>
			<stop  offset="0.7619" style="stop-color:#6507FA"/>
		</linearGradient>
		<polygon fill="url(#SVGID_6_)" points="110.7,84.3 104.4,80.7 98.2,84.3 104.4,87.9 		"/>
	</g>
	<path fill="#FFFFFF" d="M89.1,45.2c0,0.5-0.4,0.7-0.8,0.5c-0.5-0.3-0.8-0.9-0.8-1.4c0-0.5,0.4-0.7,0.8-0.5
		C88.7,44,89.1,44.6,89.1,45.2z"/>
	<linearGradient id="SVGID_7_" gradientUnits="userSpaceOnUse" x1="79.8969" y1="67.5513" x2="95.643" y2="67.5513">
		<stop  offset="0" style="stop-color:#E39A65"/>
		<stop  offset="0.2255" style="stop-color:#A92FFB"/>
		<stop  offset="0.4832" style="stop-color:#891CFB"/>
		<stop  offset="0.7619" style="stop-color:#6507FA"/>
		<stop  offset="1" style="stop-color:#0D0C6F"/>
	</linearGradient>
	<path fill="url(#SVGID_7_)" d="M80.3,90.7c-0.1,0-0.3-0.1-0.3-0.2c-0.1-0.2,0-0.4,0.1-0.5l14.6-8.4c0.1-0.1,0.1-0.2,0.1-0.3
		s0-0.2-0.1-0.3L87,76.6c-1.1-0.6-1.8-1.8-1.8-3.1V48c0-1.1,0.6-2.2,1.5-2.8l1.2-0.8c0.2-0.1,0.4-0.1,0.5,0.1
		c0.1,0.2,0.1,0.4-0.1,0.5l-1.2,0.8c-0.7,0.5-1.1,1.3-1.1,2.2v25.5c0,1,0.5,2,1.4,2.5l7.7,4.4c0.3,0.2,0.5,0.5,0.5,0.9
		c0,0.4-0.2,0.7-0.5,0.9l-14.6,8.4C80.4,90.7,80.4,90.7,80.3,90.7z"/>
	<linearGradient id="SVGID_8_" gradientUnits="userSpaceOnUse" x1="37.927" y1="70.658" x2="81.4483" y2="70.658">
		<stop  offset="0" style="stop-color:#E39A65"/>
		<stop  offset="0.4742" style="stop-color:#A92FFB"/>
		<stop  offset="0.5947" style="stop-color:#891CFB"/>
		<stop  offset="0.8056" style="stop-color:#6507FA"/>
		<stop  offset="1" style="stop-color:#0D0C6F"/>
	</linearGradient>
	<path fill="url(#SVGID_8_)" d="M37.9,86c0,3.2,2,7,4.4,8.4l34.2,19.8c-0.3,1-1,3-1,3l4.3-2.5l0,0c1-0.5,1.6-1.8,1.6-3.6V29.2
		c0-1.7-0.5-3.5-1.4-5.1L37.9,48.5V86z"/>
	<linearGradient id="SVGID_9_" gradientUnits="userSpaceOnUse" x1="28.0999" y1="87.3457" x2="82.5216" y2="32.924">
		<stop  offset="0" style="stop-color:#E39A65"/>
		<stop  offset="0.2255" style="stop-color:#A92FFB"/>
		<stop  offset="0.4832" style="stop-color:#891CFB"/>
		<stop  offset="0.7619" style="stop-color:#6507FA"/>
		<stop  offset="1" style="stop-color:#0D0C6F"/>
	</linearGradient>
	<path fill="url(#SVGID_9_)" d="M72.7,117L38,96.9c-2.4-1.4-4.4-5.2-4.4-8.4V6.7c0-3.2,2-4.7,4.4-3.3l34.7,20
		c2.4,1.4,4.4,5.2,4.4,8.4v81.8C77.1,116.9,75.1,118.4,72.7,117z"/>
	<linearGradient id="SVGID_10_" gradientUnits="userSpaceOnUse" x1="18.6397" y1="23.2053" x2="92.0465" y2="96.6122">
		<stop  offset="0" style="stop-color:#E39A65"/>
		<stop  offset="0.4742" style="stop-color:#A92FFB"/>
		<stop  offset="0.5875" style="stop-color:#891CFB"/>
		<stop  offset="0.7262" style="stop-color:#6507FA"/>
		<stop  offset="1" style="stop-color:#3919BB"/>
	</linearGradient>
	<path fill="url(#SVGID_10_)" d="M72,114.2L38.7,95c-1.8-1-3.3-3.9-3.3-6.3V8.1c0-2.4,1.5-3.5,3.3-2.5L72,24.8
		c1.8,1,3.3,3.9,3.3,6.3v80.7C75.3,114.2,73.8,115.3,72,114.2z"/>
	<g>
		<path fill="#D4ECFF" d="M36.2,36.4L36.2,36.4c-1.6-1-3.9-0.9-6.5,0.6c-5,2.9-9.1,10-9.1,15.8v4.2v0l0,0l0,0l0.2,0.1l16.4,9.6
			l0.2-5l0.2-1.9l0.9-3l0.1-0.5l1.9-3.8l1.5-1.8l1.2-1.4L46,47l0.3-0.2l1.4-0.6l1.9-0.5h1.5l1.7,0.3L36.2,36.4z"/>
		<path fill="#D4ECFF" d="M38.2,75.1l0.5-0.3v-19c-0.3,0.4-0.4,0.9-0.5,1.3V75.1z"/>
		<polygon fill="#D4ECFF" points="54.8,84.6 38.2,75.1 38.4,57 39.1,55.2 41,51.9 43.2,49.2 45.3,47.6 47.5,46.2 51.5,45.8 53.6,47 
			54.8,48.8 55.2,51.6 55.1,81.7 		"/>
		<path fill="#5793CE" d="M36.2,36.4c-1.4-0.8-3.2-0.9-5.3,0l16.9,9.7l1.8-0.5h1.5l1.7,0.3L36.2,36.4L36.2,36.4z"/>
		<g>
			<path fill="#E9F6FF" d="M31.3,36.2c-0.5,0.2-1.1,0.4-1.6,0.8c-0.4,0.2-0.7,0.5-1.1,0.7l16.8,9.7L46,47l0.3-0.2l1.4-0.6l0.6-0.1
				L31.3,36.2z"/>
			<path fill="#FFFFFF" d="M43.2,49.1l2.3-1.8l-16.8-9.7c-0.8,0.5-1.5,1.2-2.2,1.9L43.2,49.1z"/>
			<path fill="#5793CE" d="M55.3,84.3l-0.5,0.3V52.1c0-5.5-3.8-7.7-8.6-4.9c-4.7,2.7-8.6,9.4-8.6,14.8v4.4l-0.5,0.3v-4.4
				c0-5.8,4.1-12.9,9.1-15.8s9.1-0.5,9.1,5.3V84.3z"/>
		</g>
	</g>
	<g>
		<path opacity="0.4" fill="#FFFFFF" d="M52.7,74c-0.1,0-0.2,0-0.3-0.1l-12-7c-0.4-0.2-0.6-0.7-0.6-1.2v-9.5c0-0.3,0.1-0.5,0.3-0.6
			c0.2-0.1,0.4-0.1,0.5,0l12,7c0.4,0.2,0.6,0.7,0.6,1.2v9.5c0,0.3-0.1,0.5-0.3,0.6C52.9,74,52.8,74,52.7,74z M40.2,56
			C40.2,56,40.2,56.1,40.2,56c-0.1,0-0.1,0.1-0.1,0.3v9.5c0,0.3,0.2,0.7,0.4,0.9l12,7c0,0,0.1,0.1,0.2,0c0,0,0.1-0.1,0.1-0.3v-9.5
			c0-0.3-0.2-0.7-0.4-0.9l-12-7C40.3,56.1,40.3,56,40.2,56z"/>
		<g>
			<path fill="#B2D3EA" d="M44.1,67.4L44.1,67.4c-0.4-0.2-0.7-0.7-0.7-1.1v-4.5c0-0.4,0.3-0.6,0.6-0.4l0.1,0
				c0.3,0.2,0.6,0.7,0.6,1.1V67C44.7,67.4,44.4,67.6,44.1,67.4z"/>
			<path fill="#B2D3EA" d="M46.5,68.8L46.5,68.8c-0.4-0.2-0.7-0.7-0.7-1.1V65c0-0.4,0.3-0.6,0.6-0.4l0.1,0c0.3,0.2,0.6,0.7,0.6,1.1
				v2.6C47.1,68.8,46.8,69,46.5,68.8z"/>
			<path fill="#396CAA" d="M48.9,70.2L48.9,70.2c-0.4-0.2-0.7-0.7-0.7-1.1v-6.3c0-0.4,0.3-0.6,0.6-0.4l0.1,0
				c0.3,0.2,0.6,0.7,0.6,1.1v6.3C49.5,70.2,49.3,70.4,48.9,70.2z"/>
		</g>
	</g>
	<g>
		<ellipse opacity="0.6" fill="#020230" enable-background="new    " cx="29.5" cy="112.7" rx="10.4" ry="6"/>
		<g>
			<path fill="#173D7A" d="M23.2,109.6c-0.7,0.3-1.2,1.1-1.1,2c0,0.4,0.1,0.8,0.2,1c0.2,0.5,1,1.1,2.2,0.7c1.2-0.5,3.9-3,4-4.6
				C28.6,105.5,25.1,108.8,23.2,109.6z"/>
			<path fill="#173D7A" d="M30.2,114.6c0,0-0.3,1.8-0.1,2.1c0.1,0.3,1,1,2.2,0.9c1.2-0.1,4.8-1.4,5.6-3.7c1.2-3.6-6.9,0.3-6.9,0.3
				L30.2,114.6z"/>
			<path fill="#FDD762" d="M33.7,86.5L34,114c0,1-0.7,1.8-1.5,1.9c-0.1,0-0.2,0-0.3,0c-0.9,0.1-1.3-0.3-1.6-0.7
				c-0.2-0.3-0.3-0.7-0.4-1.1l-0.4-11.7l-1.7-10.5l-2.4,18.5c0,0.5-0.3,1-0.7,1.2c-0.3,0.2-0.6,0.3-1.1,0.3c-0.7,0-1.2-0.4-1.5-0.7
				c-0.2-0.3-0.4-0.6-0.4-1l1-11.2l0.4-14.2L33.7,86.5z"/>
			<path fill="#FFC2B0" d="M30.2,61.9l-0.4,2.5c0,0,0,0.9,0.9,1.1c1,0.2,1.2-0.4,1.2-0.4l0.4-2.8L30.2,61.9z"/>
			<path fill="#FFC2B0" d="M35.4,60.6c-0.7,2.1-2.8,3.4-4.7,2.8c-1.9-0.6-2.9-2.8-2.2-5c0.7-2.1,2.8-3.4,4.7-2.8
				C35.1,56.2,36.1,58.4,35.4,60.6z"/>
			<path fill="#983BE9" d="M30.3,64.5c-0.1,0-4-2.6-5.5,0.1c-2.4,4.4-0.6,9.4-1.5,20.3c-0.1,1.8,2.4,2.9,3.7,3.6
				c1.1,0.6,2.3,1,3.6,1c1.2,0,3.6-1.1,3.5-2.7c-0.4-7.5,0.3-13.8,0.9-19.9C34.9,66.9,34.2,66.1,30.3,64.5z"/>
			<path fill="#D8892B" d="M28.1,91.9l-2.4,18.5c0,0.5-0.3,1-0.7,1.2c-0.1,0-0.1,0.1-0.2,0.1c0.5-0.4,2-15.9,2.2-17.7
				C27.3,92.4,28.1,91.9,28.1,91.9z"/>
		</g>
		<polygon fill="#FFC2B0" points="43.2,66.7 46.5,60.1 45.5,59.5 42,64.5 		"/>
		<polygon fill="#FFC2B0" points="21.2,59.7 22.8,52.4 24.1,52.4 23.6,58.5 		"/>
		<path fill="#983BE9" d="M34.9,66.9c0,0,3.7,1.5,6.9-2.6c0.3-0.4,0.9-0.3,1,0.1c0.3,0.7,0.6,1.7,0.2,2.6c-1.9,4.2-8.5,4-10.1,6.3
			C31.4,75.6,34.9,66.9,34.9,66.9z"/>
		<path fill="#983BE9" d="M27.8,63.6c0,0-3.1,0.2-3.5-2.4c-0.2-1.4-0.3-2.2-0.3-2.7c0-0.3-0.3-0.6-0.6-0.5c-0.7,0.1-1.9,0.3-2,0.8
			c-0.2,0.7-0.7,4.4,2.4,9.9C25.7,72.3,27.8,63.6,27.8,63.6z"/>
		<path fill="#FFC2B0" d="M22.8,52.4l0-0.8c0-0.3,0.1-0.6,0.3-0.8l0.9-1.4l0.2-0.3c0.2-0.3,0.6-0.3,0.9-0.1l0.2,0.1
			c0.2,0.2,0.4,0.4,0.4,0.7l-0.4,1.2l0.6-0.1c0.1,0,0.2,0.1,0.2,0.2l0,0c0,0.1,0,0.2-0.1,0.2l-0.9,0.4l-0.8,1.2L22.8,52.4z"/>
		<path fill="#FFC2B0" d="M46.5,60.2l0.4-0.7c0.1-0.3,0.2-0.6,0.2-0.9l0-1.6L47,56.6C47,56.3,46.7,56,46.3,56l-0.2,0
			c-0.3,0-0.6,0.2-0.7,0.5l-0.2,1.3l-0.4-0.4c-0.1-0.1-0.2-0.1-0.3,0l0,0c-0.1,0.1-0.1,0.2,0,0.2l0.6,0.8l0.2,1.6L46.5,60.2z"/>
		<path fill="#721BD5" d="M32.5,72.5c-0.3,1.5,1.6,12.6-0.5,16.7c1.1-0.4,2.2-1.3,2.1-2.4c-0.3-5.3,0-10.1,0.4-14.6
			c1.9-0.9,4.8-1.5,6.8-3C39,70,32.8,71.2,32.5,72.5z"/>
		<path fill="#FFFFFF" d="M28.9,63.8l0.6-0.6c0,0,0.9,0.9,1.6,1.1c0,0,0.9,0.2,1.3,0.3l0.4,1C32.7,65.5,29.8,65.3,28.9,63.8z"/>
		<path fill="#173D7A" d="M32.8,60.6c0.2,0,0.3-0.1,0.4-0.2c0.2-0.2,0.1-1.2,0.5-1.4c0.7-0.3,2.5,0.7,2.6-2c0.1-1.4-0.6-1.7-0.6-2.5
			c0,0,0.1,0.4-3.5,0.1c-3.5-0.2-4.6,2.9-4.7,4.4c-0.1,1.5,0.6,3.9,3,4.3c0.4,0.1,2.1-1.3,2-1.5c0-0.2-0.7-0.2-0.6-0.7
			C32.2,60.8,32.4,60.6,32.8,60.6z"/>
	</g>
	<g>
		<g>
			<path fill="#721BD5" d="M49.8,16.4l-10.6-6.1c-0.2-0.1-0.4-0.1-0.5,0c0,0,0,0,0,0l-1,0.6c0,0,0.5,0.2,0.7,0.3v7.7
				c0,0.6,0.4,1.4,0.9,1.6l10.1,5.8v0.9l1-0.6l0,0c0.2-0.1,0.3-0.3,0.3-0.7v-7.9C50.6,17.4,50.2,16.7,49.8,16.4z"/>
			<path fill="#983BE9" d="M48.7,27.2l-10.6-6.1c-0.5-0.3-0.9-1-0.9-1.6v-7.9c0-0.6,0.4-0.9,0.9-0.6L48.7,17c0.5,0.3,0.9,1,0.9,1.6
				v7.9C49.6,27.2,49.2,27.5,48.7,27.2z"/>
			<path fill="#FFFFFF" d="M48.7,17l-10.6-6.1c-0.3-0.2-0.5-0.1-0.7,0c0.1,0,0.2,0,0.4,0.1l10.6,6.1c0.5,0.3,0.9,1,0.9,1.6v7.9
				c0,0.3-0.1,0.5-0.2,0.6c0.3,0,0.5-0.3,0.5-0.7v-7.9C49.6,18,49.2,17.3,48.7,17z"/>
		</g>
		<g>
			<path fill="#FFFFFF" d="M41.7,18.4c0,0.5-0.3,0.6-0.7,0.4c-0.4-0.2-0.7-0.8-0.7-1.2c0-0.5,0.3-0.6,0.7-0.4
				C41.4,17.4,41.7,17.9,41.7,18.4z"/>
			<path fill="#FFFFFF" d="M43.9,19.6c0,0.5-0.3,0.6-0.7,0.4c-0.4-0.2-0.7-0.8-0.7-1.2c0-0.5,0.3-0.6,0.7-0.4
				C43.5,18.6,43.9,19.2,43.9,19.6z"/>
			<path fill="#FFFFFF" d="M46,20.9c0,0.5-0.3,0.6-0.7,0.4c-0.4-0.2-0.7-0.8-0.7-1.2c0-0.5,0.3-0.6,0.7-0.4
				C45.7,19.9,46,20.4,46,20.9z"/>
		</g>
	</g>
	<g>
		<g>
			<path fill="#5793CE" d="M70.9,48.2l-10.6-6.1c-0.2-0.1-0.4-0.1-0.5,0c0,0,0,0,0,0l-1,0.6c0,0,0.5,0.2,0.7,0.3v17.6
				c0,0.6,0.4,1.4,0.9,1.6l10.1,5.8v0.9l1-0.6l0,0c0.2-0.1,0.3-0.3,0.3-0.7V49.8C71.7,49.2,71.3,48.5,70.9,48.2z"/>
			<path fill="#D4ECFF" d="M69.8,68.8l-10.6-6.1c-0.5-0.3-0.9-1-0.9-1.6V43.3c0-0.6,0.4-0.9,0.9-0.6l10.6,6.1c0.5,0.3,0.9,1,0.9,1.6
				v17.7C70.7,68.8,70.3,69.1,69.8,68.8z"/>
			<path fill="#FFFFFF" d="M69.8,48.8l-10.6-6.1c-0.3-0.2-0.5-0.1-0.7,0c0.1,0,0.2,0,0.4,0.1l10.6,6.1c0.5,0.3,0.9,1,0.9,1.6v17.7
				c0,0.3-0.1,0.5-0.2,0.6c0.3,0,0.5-0.3,0.5-0.7V50.4C70.7,49.8,70.3,49.1,69.8,48.8z"/>
		</g>
	</g>
	<g>
		<g>
			<linearGradient id="SVGID_11_" gradientUnits="userSpaceOnUse" x1="58.6931" y1="79.3763" x2="71.7226" y2="79.3763">
				<stop  offset="0" style="stop-color:#E39A65"/>
				<stop  offset="0.2255" style="stop-color:#A92FFB"/>
				<stop  offset="0.4832" style="stop-color:#891CFB"/>
				<stop  offset="0.7619" style="stop-color:#6507FA"/>
				<stop  offset="1" style="stop-color:#0D0C6F"/>
			</linearGradient>
			<path fill="url(#SVGID_11_)" d="M70.9,72.2L60.3,66c-0.2-0.1-0.4-0.1-0.5,0c0,0,0,0,0,0l-1,0.6c0,0,0.5,0.2,0.7,0.3v17.6
				c0,0.6,0.4,1.4,0.9,1.6l10.1,5.8v0.9l1-0.6l0,0c0.2-0.1,0.3-0.3,0.3-0.7V73.8C71.7,73.2,71.3,72.4,70.9,72.2z"/>
			<linearGradient id="SVGID_12_" gradientUnits="userSpaceOnUse" x1="58.3703" y1="85.8635" x2="70.6738" y2="73.56">
				<stop  offset="0" style="stop-color:#E39A65"/>
				<stop  offset="0.2255" style="stop-color:#A92FFB"/>
				<stop  offset="0.4832" style="stop-color:#891CFB"/>
				<stop  offset="1" style="stop-color:#6507FA"/>
			</linearGradient>
			<path fill="url(#SVGID_12_)" d="M69.8,92.8l-10.6-6.1c-0.5-0.3-0.9-1-0.9-1.6V67.3c0-0.6,0.4-0.9,0.9-0.6l10.6,6.1
				c0.5,0.3,0.9,1,0.9,1.6v17.7C70.7,92.8,70.3,93.1,69.8,92.8z"/>
			<path fill="#FFFFFF" d="M69.8,72.8l-10.6-6.1c-0.3-0.2-0.5-0.1-0.7,0c0.1,0,0.2,0,0.4,0.1l10.6,6.1c0.5,0.3,0.9,1,0.9,1.6v17.7
				c0,0.3-0.1,0.5-0.2,0.6c0.3,0,0.5-0.3,0.5-0.7V74.4C70.7,73.8,70.3,73,69.8,72.8z"/>
		</g>
	</g>
	<g>
		<path fill="#D3008D" d="M66.1,75.2c0,1-0.7,1.4-1.5,0.9c-0.9-0.5-1.5-1.7-1.5-2.7c0-1,0.7-1.4,1.5-0.9
			C65.4,73,66.1,74.2,66.1,75.2z"/>
		<path fill="#D3008D" d="M66.7,78C66.7,77.9,66.7,77.9,66.7,78c-0.1-0.5-0.5-0.8-0.7-0.7c-0.4,0.1-0.9,0.1-1.5-0.2
			c-0.6-0.3-1.1-0.8-1.5-1.4c-0.3-0.4-0.7-0.5-0.7-0.1c0,0,0,0,0,0l-0.7,4.7l5.8,3.4L66.7,78z"/>
	</g>
	<g>
		<path fill="#FFFFFF" d="M66.1,75.2c0,1-0.7,1.4-1.5,0.9c-0.9-0.5-1.5-1.7-1.5-2.7c0-1,0.7-1.4,1.5-0.9
			C65.4,73,66.1,74.2,66.1,75.2z"/>
		<path fill="#FFFFFF" d="M66.7,78C66.7,77.9,66.7,77.9,66.7,78c-0.1-0.5-0.5-0.8-0.7-0.7c-0.4,0.1-0.9,0.1-1.5-0.2
			c-0.6-0.3-1.1-0.8-1.5-1.4c-0.3-0.4-0.7-0.5-0.7-0.1c0,0,0,0,0,0l-0.7,4.7l5.8,3.4L66.7,78z"/>
	</g>
	<g>
		<polygon fill="#FFFFFF" points="67.9,87 60.8,82.9 60.8,82.4 67.9,86.5 		"/>
		<polygon fill="#FFFFFF" points="65.7,88 60.8,85.1 60.8,84.6 65.7,87.5 		"/>
		<polygon fill="#FFFFFF" points="65,86.5 60.8,84 60.8,83.5 65,86 		"/>
		<polygon fill="#FFFFFF" points="67.9,88.1 65.7,86.9 65.7,86.4 67.9,87.6 		"/>
	</g>
	<g>
		<polygon fill="#5793CE" points="67.9,52.8 60.8,48.7 60.8,48.2 67.9,52.3 		"/>
		<polygon fill="#5793CE" points="65.7,53.8 60.8,50.9 60.8,50.4 65.7,53.3 		"/>
		<polygon fill="#5793CE" points="65.1,52.3 60.8,49.8 60.8,49.3 65.1,51.8 		"/>
		<polygon fill="#5793CE" points="67.9,53.9 65.7,52.7 65.7,52.2 67.9,53.4 		"/>
	</g>
	<g>
		<polygon fill="#5793CE" points="67.9,57.1 60.8,53 60.8,52.5 67.9,56.6 		"/>
		<polygon fill="#5793CE" points="65.7,58.1 60.8,55.3 60.8,54.7 65.7,57.6 		"/>
		<polygon fill="#5793CE" points="65.1,56.6 60.8,54.1 60.8,53.6 65.1,56.1 		"/>
		<polygon fill="#5793CE" points="67.9,58.2 65.7,57 65.7,56.5 67.9,57.7 		"/>
	</g>
	<g>
		<polygon fill="#5793CE" points="67.9,61.4 60.8,57.3 60.8,56.8 67.9,60.9 		"/>
		<polygon fill="#5793CE" points="65.7,62.4 60.8,59.6 60.8,59.1 65.7,61.9 		"/>
		<polygon fill="#5793CE" points="65.1,60.9 60.8,58.5 60.8,57.9 65.1,60.4 		"/>
		<polygon fill="#5793CE" points="67.9,62.6 65.7,61.3 65.7,60.8 67.9,62 		"/>
	</g>
	<g>
		<polygon fill="#FFFFFF" points="45.5,73.6 40.4,70.6 40.4,70.2 45.5,73.1 		"/>
		<polygon fill="#FFFFFF" points="48.6,75.4 46.5,74.1 46.5,73.6 48.6,74.9 		"/>
		<polygon fill="#FFFFFF" points="45.7,74.7 43.5,73.4 43.5,73 45.7,74.2 		"/>
		<polygon fill="#FFFFFF" points="50.4,77.4 46.5,75.2 46.5,74.7 50.4,76.9 		"/>
		<polygon fill="#FFFFFF" points="53,80 47.3,76.6 47.3,76.2 53,79.5 		"/>
		<polygon fill="#FFFFFF" points="51.7,77.2 49.6,75.9 49.6,75.4 51.7,76.7 		"/>
		<polygon fill="#FFFFFF" points="42.6,72.9 40.4,71.7 40.4,71.2 42.6,72.4 		"/>
		<polygon fill="#FFFFFF" points="46.3,76.1 40.4,72.7 40.4,72.2 46.3,75.6 		"/>
		<polygon fill="#FFFFFF" points="44.1,75.8 40.5,73.8 40.5,73.3 44.1,75.3 		"/>
	</g>
	<linearGradient id="SVGID_13_" gradientUnits="userSpaceOnUse" x1="96.2447" y1="94.1304" x2="112.3583" y2="94.1304">
		<stop  offset="0" style="stop-color:#E39A65"/>
		<stop  offset="0.2255" style="stop-color:#A92FFB"/>
		<stop  offset="0.4832" style="stop-color:#891CFB"/>
		<stop  offset="0.7619" style="stop-color:#6507FA"/>
		<stop  offset="1" style="stop-color:#0D0C6F"/>
	</linearGradient>
	<path fill="url(#SVGID_13_)" d="M96.6,100.8c-0.1,0-0.3-0.1-0.3-0.2c-0.1-0.2,0-0.4,0.1-0.5l15-8.9c0.1-0.1,0.1-0.2,0.1-0.2
		c0,0,0-0.2-0.1-0.2l-4.1-2.5c-0.2-0.1-0.2-0.3-0.1-0.5c0.1-0.2,0.3-0.2,0.5-0.1l4.1,2.5c0.3,0.2,0.5,0.5,0.5,0.9
		c0,0.4-0.2,0.7-0.5,0.9l-15,8.9C96.8,100.7,96.7,100.8,96.6,100.8z"/>
	<g>
		<polygon opacity="0.6" fill="#020230" enable-background="new    " points="99.6,107.5 94.4,104.5 89.1,107.5 94.4,110.6 		"/>
		<linearGradient id="SVGID_14_" gradientUnits="userSpaceOnUse" x1="94.3568" y1="104.2738" x2="100.5829" y2="104.2738">
			<stop  offset="0" style="stop-color:#A92FFB"/>
			<stop  offset="0.2619" style="stop-color:#8C1EFB"/>
			<stop  offset="0.4621" style="stop-color:#891CFB"/>
			<stop  offset="0.7989" style="stop-color:#6507FA"/>
		</linearGradient>
		<polygon fill="url(#SVGID_14_)" points="94.4,107.8 94.4,104.4 100.6,100.8 100.6,104.2 		"/>
		<linearGradient id="SVGID_15_" gradientUnits="userSpaceOnUse" x1="88.1308" y1="104.2738" x2="94.3568" y2="104.2738">
			<stop  offset="0" style="stop-color:#E39A65"/>
			<stop  offset="0.4054" style="stop-color:#A92FFB"/>
			<stop  offset="0.6314" style="stop-color:#891CFB"/>
		</linearGradient>
		<polygon fill="url(#SVGID_15_)" points="94.4,104.4 88.1,100.8 88.1,104.2 94.4,107.8 		"/>
		<linearGradient id="SVGID_16_" gradientUnits="userSpaceOnUse" x1="88.1308" y1="100.7814" x2="100.5829" y2="100.7814">
			<stop  offset="0" style="stop-color:#E39A65"/>
			<stop  offset="0.2255" style="stop-color:#A92FFB"/>
			<stop  offset="0.4832" style="stop-color:#891CFB"/>
			<stop  offset="0.7619" style="stop-color:#6507FA"/>
		</linearGradient>
		<polygon fill="url(#SVGID_16_)" points="100.6,100.8 94.4,97.2 88.1,100.8 94.4,104.4 		"/>
	</g>
</g>
</svg>
