<?xml version="1.0" encoding="utf-8"?>
<!-- Generator: Adobe Illustrator 24.0.0, SVG Export Plug-In . SVG Version: 6.00 Build 0)  -->
<svg version="1.1" id="Capa_1" xmlns="http://www.w3.org/2000/svg" xmlns:xlink="http://www.w3.org/1999/xlink" x="0px" y="0px"
	 viewBox="0 0 124 120" enable-background="new 0 0 124 120" xml:space="preserve">
<radialGradient id="SVGID_1_" cx="64.3937" cy="-0.8498" r="88.6958" gradientUnits="userSpaceOnUse">
	<stop  offset="0" style="stop-color:#E39A65"/>
	<stop  offset="0.4742" style="stop-color:#A92FFB"/>
	<stop  offset="0.5947" style="stop-color:#891CFB"/>
	<stop  offset="0.7421" style="stop-color:#6507FA"/>
	<stop  offset="0.8016" style="stop-color:#0D0C6F"/>
</radialGradient>
<path fill="url(#SVGID_1_)" d="M122.602,34.213L65.459,1.222c-0.393-0.227-0.803-0.274-1.166-0.168v0l0,0
	c-0.002,0.001-0.003,0.001-0.005,0.002l-1.058,0.369l0.372,0.088c-0.149,0.177-0.27,0.396-0.349,0.654L50.33,44.124
	c-0.32,1.04,0.149,2.305,1.047,2.823l57.144,32.992c0.139,0.08,0.28,0.135,0.42,0.172l-0.142,0.308l1.011-0.355l-0.002-0.001
	c0.414-0.165,0.755-0.535,0.919-1.069l12.923-41.958C123.97,35.996,123.501,34.732,122.602,34.213z"/>
<radialGradient id="SVGID_2_" cx="10.1455" cy="70.3793" r="96.9881" gradientUnits="userSpaceOnUse">
	<stop  offset="0" style="stop-color:#E39A65"/>
	<stop  offset="0.4742" style="stop-color:#A92FFB"/>
	<stop  offset="0.5679" style="stop-color:#891CFB"/>
	<stop  offset="0.6825" style="stop-color:#6507FA"/>
	<stop  offset="0.7381" style="stop-color:#0D0C6F"/>
</radialGradient>
<path fill="url(#SVGID_2_)" d="M106.475,81.506l0.02,0.024L50.052,48.943c-0.83-0.479-2.281-0.419-3.239,0.134L10.345,70.132
	l-1.216-0.464l0.342,1.706l0.002-0.001c0.045,0.257,0.225,0.497,0.547,0.683l56.965,32.889c0.83,0.479,2.281,0.419,3.239-0.134
	l36.56-21.108c0.451-0.26,0.71-0.584,0.775-0.903l0.002,0.003l0.349-1.66L106.475,81.506z"/>
<radialGradient id="SVGID_3_" cx="19.0658" cy="50.9122" r="86.9735" gradientUnits="userSpaceOnUse">
	<stop  offset="0" style="stop-color:#E39A65"/>
	<stop  offset="0.4742" style="stop-color:#A92FFB"/>
	<stop  offset="0.5875" style="stop-color:#891CFB"/>
	<stop  offset="0.7262" style="stop-color:#6507FA"/>
	<stop  offset="1" style="stop-color:#3919BB"/>
</radialGradient>
<path fill="url(#SVGID_3_)" d="M67.045,103.443L9.675,70.321c-0.836-0.483-0.731-1.326,0.234-1.884l36.82-21.258
	c0.966-0.557,2.426-0.618,3.262-0.135l57.369,33.122c0.836,0.483,0.731,1.326-0.234,1.884l-36.82,21.258
	C69.342,103.866,67.881,103.926,67.045,103.443z"/>
<path fill="#FFFFFF" d="M107.127,81.603l-36.82,21.258c-0.966,0.557-2.426,0.618-3.262,0.135L9.675,69.874
	c-0.285-0.164-0.452-0.372-0.522-0.595c-0.111,0.385,0.051,0.77,0.522,1.042l57.37,33.122c0.836,0.483,2.297,0.422,3.262-0.135
	l36.82-21.258c0.637-0.368,0.891-0.858,0.756-1.289C107.797,81.061,107.55,81.359,107.127,81.603z"/>
<g opacity="0.4">
	<path fill="#06033E" d="M37.04,64.946l-1.937-1.118c-0.156-0.09-0.136-0.247,0.044-0.35l2.286-1.32
		c0.18-0.104,0.451-0.115,0.607-0.025l1.937,1.118c0.156,0.09,0.136,0.247-0.044,0.35l-2.286,1.32
		C37.467,65.024,37.195,65.036,37.04,64.946z"/>
	<path fill="#06033E" d="M40.031,66.673l-1.937-1.118c-0.156-0.09-0.136-0.247,0.044-0.35l2.286-1.32
		c0.18-0.104,0.451-0.115,0.607-0.025l1.937,1.118c0.156,0.09,0.136,0.247-0.044,0.35l-2.286,1.32
		C40.458,66.751,40.187,66.763,40.031,66.673z"/>
	<path fill="#06033E" d="M43.022,68.4l-1.937-1.118c-0.156-0.09-0.136-0.247,0.044-0.35l2.286-1.32
		c0.18-0.104,0.451-0.115,0.607-0.025l1.937,1.118c0.156,0.09,0.136,0.247-0.044,0.35l-2.286,1.32
		C43.449,68.478,43.178,68.489,43.022,68.4z"/>
	<path fill="#06033E" d="M47.159,66.974l-1.937-1.118c-0.156-0.09-0.136-0.247,0.044-0.35l1.919-1.108
		c0.18-0.104,0.451-0.115,0.607-0.025l1.937,1.118c0.156,0.09,0.136,0.247-0.044,0.35l-1.919,1.108
		C47.586,67.052,47.315,67.063,47.159,66.974z"/>
	<path fill="#06033E" d="M50.15,68.7l-1.937-1.118c-0.156-0.09-0.136-0.247,0.044-0.35l1.919-1.108
		c0.18-0.104,0.451-0.115,0.607-0.025l1.937,1.118c0.156,0.09,0.136,0.247-0.044,0.35l-1.919,1.108
		C50.577,68.779,50.306,68.79,50.15,68.7z"/>
	<path fill="#06033E" d="M53.141,70.427l-1.937-1.118c-0.156-0.09-0.136-0.247,0.044-0.35l1.919-1.108
		c0.18-0.104,0.451-0.115,0.607-0.025l1.937,1.118c0.156,0.09,0.136,0.247-0.044,0.35l-1.919,1.108
		C53.568,70.506,53.297,70.517,53.141,70.427z"/>
	<path fill="#06033E" d="M56.132,72.154l-1.937-1.118c-0.156-0.09-0.136-0.247,0.044-0.35l1.919-1.108
		c0.18-0.104,0.451-0.115,0.607-0.025l1.937,1.118c0.156,0.09,0.136,0.247-0.044,0.35l-1.919,1.108
		C56.559,72.233,56.288,72.244,56.132,72.154z"/>
	<path fill="#06033E" d="M59.123,73.881l-1.937-1.118c-0.156-0.09-0.136-0.247,0.044-0.35l1.919-1.108
		c0.18-0.104,0.451-0.115,0.607-0.025l1.937,1.118c0.156,0.09,0.136,0.247-0.044,0.35l-1.919,1.108
		C59.551,73.96,59.279,73.971,59.123,73.881z"/>
	<path fill="#06033E" d="M62.115,75.608l-1.937-1.118c-0.156-0.09-0.136-0.247,0.044-0.35l1.919-1.108
		c0.18-0.104,0.451-0.115,0.607-0.025l1.937,1.118c0.156,0.09,0.136,0.247-0.044,0.35l-1.919,1.108
		C62.542,75.687,62.27,75.698,62.115,75.608z"/>
	<path fill="#06033E" d="M65.106,77.335l-1.937-1.118c-0.156-0.09-0.136-0.247,0.044-0.35l1.919-1.108
		c0.18-0.104,0.451-0.115,0.607-0.025l1.937,1.118c0.156,0.09,0.136,0.247-0.044,0.35l-1.919,1.108
		C65.533,77.414,65.261,77.425,65.106,77.335z"/>
	<path fill="#06033E" d="M68.097,79.062l-1.937-1.118c-0.156-0.09-0.136-0.247,0.044-0.35l1.919-1.108
		c0.18-0.104,0.451-0.115,0.607-0.025l1.937,1.118c0.156,0.09,0.136,0.247-0.044,0.35l-1.919,1.108
		C68.524,79.141,68.252,79.152,68.097,79.062z"/>
	<path fill="#06033E" d="M71.088,80.789l-1.937-1.118c-0.156-0.09-0.136-0.247,0.044-0.35l1.919-1.108
		c0.18-0.104,0.451-0.115,0.607-0.025l1.937,1.118c0.156,0.09,0.136,0.247-0.044,0.35l-1.919,1.108
		C71.515,80.867,71.243,80.879,71.088,80.789z"/>
	<path fill="#06033E" d="M74.079,82.516l-1.937-1.118c-0.156-0.09-0.136-0.247,0.044-0.35l1.919-1.108
		c0.18-0.104,0.451-0.115,0.607-0.025l1.937,1.118c0.156,0.09,0.136,0.247-0.044,0.35l-1.919,1.108
		C74.506,82.594,74.234,82.606,74.079,82.516z"/>
	<path fill="#06033E" d="M51.566,66.156l-1.937-1.118c-0.156-0.09-0.136-0.247,0.044-0.35l1.919-1.108
		c0.18-0.104,0.451-0.115,0.607-0.025l1.937,1.118c0.156,0.09,0.136,0.247-0.044,0.35l-1.919,1.108
		C51.993,66.234,51.722,66.246,51.566,66.156z"/>
	<path fill="#06033E" d="M48.53,64.403l-1.937-1.118c-0.156-0.09-0.136-0.247,0.044-0.35l1.919-1.108
		c0.18-0.104,0.451-0.115,0.607-0.025L51.1,62.92c0.156,0.09,0.136,0.247-0.044,0.35l-1.919,1.108
		C48.958,64.482,48.686,64.493,48.53,64.403z"/>
	<path fill="#06033E" d="M45.49,62.648l-4.172-2.408c-0.156-0.09-0.136-0.247,0.044-0.35l1.919-1.108
		c0.18-0.104,0.451-0.115,0.607-0.025l4.172,2.408c0.156,0.09,0.136,0.247-0.044,0.35l-1.919,1.108
		C45.917,62.726,45.645,62.738,45.49,62.648z"/>
	<path fill="#06033E" d="M47.615,60.513l-3.385-1.954c-0.156-0.09-0.136-0.247,0.044-0.35l1.919-1.108
		c0.18-0.104,0.451-0.115,0.607-0.025l3.385,1.955c0.156,0.09,0.136,0.247-0.044,0.35l-1.919,1.108
		C48.042,60.591,47.771,60.603,47.615,60.513z"/>
	<path fill="#06033E" d="M54.557,67.883l-1.937-1.118c-0.156-0.09-0.136-0.247,0.044-0.35l1.919-1.108
		c0.18-0.104,0.451-0.115,0.607-0.025l1.937,1.118c0.156,0.09,0.136,0.247-0.044,0.35l-1.919,1.108
		C54.984,67.961,54.713,67.973,54.557,67.883z"/>
	<path fill="#06033E" d="M57.548,69.61l-1.937-1.118c-0.156-0.09-0.136-0.247,0.044-0.35l1.919-1.108
		c0.18-0.104,0.451-0.115,0.607-0.025l1.937,1.118c0.156,0.09,0.136,0.247-0.044,0.35l-1.919,1.108
		C57.976,69.688,57.704,69.7,57.548,69.61z"/>
	<path fill="#06033E" d="M60.54,71.337l-1.937-1.118c-0.156-0.09-0.136-0.247,0.044-0.35l1.919-1.108
		c0.18-0.104,0.451-0.115,0.607-0.025l1.937,1.118c0.156,0.09,0.136,0.247-0.044,0.35l-1.919,1.108
		C60.967,71.415,60.695,71.427,60.54,71.337z"/>
	<path fill="#06033E" d="M63.531,73.064l-1.937-1.118c-0.156-0.09-0.136-0.247,0.044-0.35l1.919-1.108
		c0.18-0.104,0.451-0.115,0.607-0.025L66.1,71.58c0.156,0.09,0.136,0.247-0.044,0.35l-1.919,1.108
		C63.958,73.142,63.686,73.153,63.531,73.064z"/>
	<path fill="#06033E" d="M66.522,74.791l-1.937-1.118c-0.156-0.09-0.136-0.247,0.044-0.35l1.919-1.108
		c0.18-0.104,0.451-0.115,0.607-0.025l1.937,1.118c0.156,0.09,0.136,0.247-0.044,0.35l-1.919,1.108
		C66.949,74.869,66.677,74.88,66.522,74.791z"/>
	<path fill="#06033E" d="M69.513,76.517l-1.937-1.118c-0.156-0.09-0.136-0.247,0.044-0.35l1.919-1.108
		c0.18-0.104,0.451-0.115,0.607-0.025l1.937,1.118c0.156,0.09,0.136,0.247-0.044,0.35l-1.919,1.108
		C69.94,76.596,69.668,76.607,69.513,76.517z"/>
	<path fill="#06033E" d="M72.504,78.244l-1.937-1.118c-0.156-0.09-0.136-0.247,0.044-0.35l1.919-1.108
		c0.18-0.104,0.451-0.115,0.607-0.025l1.937,1.118c0.156,0.09,0.136,0.247-0.044,0.35l-1.919,1.108
		C72.931,78.323,72.659,78.334,72.504,78.244z"/>
	<path fill="#06033E" d="M75.495,79.971l-1.937-1.118c-0.156-0.09-0.136-0.247,0.044-0.35l1.919-1.108
		c0.18-0.104,0.451-0.115,0.607-0.025l1.937,1.118c0.156,0.09,0.136,0.247-0.044,0.35l-1.919,1.108
		C75.922,80.05,75.651,80.061,75.495,79.971z"/>
	<path fill="#06033E" d="M78.486,81.698l-1.937-1.118c-0.156-0.09-0.136-0.247,0.044-0.35l1.919-1.108
		c0.18-0.104,0.451-0.115,0.607-0.025l1.937,1.118c0.156,0.09,0.136,0.247-0.044,0.35l-1.919,1.108
		C78.913,81.777,78.642,81.788,78.486,81.698z"/>
	<path fill="#06033E" d="M83.804,84.768l-4.226-2.44c-0.156-0.09-0.136-0.247,0.044-0.35l1.919-1.108
		c0.18-0.104,0.451-0.115,0.607-0.025l4.226,2.44c0.156,0.09,0.136,0.247-0.044,0.35l-1.919,1.108
		C84.231,84.847,83.959,84.858,83.804,84.768z"/>
	<path fill="#06033E" d="M89.627,81.406l-3.567-2.059c-0.156-0.09-0.136-0.247,0.044-0.35l1.919-1.108
		c0.18-0.104,0.451-0.115,0.607-0.025l3.567,2.059c0.156,0.09,0.136,0.247-0.044,0.35l-1.919,1.108
		C90.054,81.485,89.783,81.496,89.627,81.406z"/>
	<path fill="#06033E" d="M59.795,67.545l-1.937-1.118c-0.156-0.09-0.136-0.247,0.044-0.35l1.919-1.108
		c0.18-0.104,0.451-0.115,0.607-0.025l1.937,1.118c0.156,0.09,0.136,0.247-0.044,0.35l-1.919,1.108
		C60.223,67.624,59.951,67.635,59.795,67.545z"/>
	<path fill="#06033E" d="M56.73,65.775l-1.937-1.118c-0.156-0.09-0.136-0.247,0.044-0.35l1.919-1.108
		c0.18-0.104,0.451-0.115,0.607-0.025l1.937,1.118c0.156,0.09,0.136,0.247-0.044,0.35l-1.919,1.108
		C57.157,65.854,56.885,65.865,56.73,65.775z"/>
	<path fill="#06033E" d="M53.664,64.005l-1.937-1.118c-0.156-0.09-0.136-0.247,0.044-0.35l1.919-1.108
		c0.18-0.104,0.451-0.115,0.607-0.025l1.937,1.118c0.156,0.09,0.136,0.247-0.044,0.35l-1.919,1.108
		C54.091,64.084,53.82,64.095,53.664,64.005z"/>
	<path fill="#06033E" d="M50.599,62.235l-1.937-1.118c-0.156-0.09-0.136-0.247,0.044-0.35l1.919-1.108
		c0.18-0.104,0.451-0.115,0.607-0.025l1.937,1.118c0.156,0.09,0.136,0.247-0.044,0.35l-1.919,1.108
		C51.026,62.314,50.754,62.325,50.599,62.235z"/>
	<path fill="#06033E" d="M62.786,69.272l-1.937-1.118c-0.156-0.09-0.136-0.247,0.044-0.35l1.919-1.108
		c0.18-0.104,0.451-0.115,0.607-0.025l1.937,1.118c0.156,0.09,0.136,0.247-0.044,0.35l-1.919,1.108
		C63.214,69.35,62.942,69.362,62.786,69.272z"/>
	<path fill="#06033E" d="M65.778,70.999l-1.937-1.118c-0.156-0.09-0.136-0.247,0.044-0.35l1.919-1.108
		c0.18-0.104,0.451-0.115,0.607-0.025l1.937,1.118c0.156,0.09,0.136,0.247-0.044,0.35l-1.919,1.108
		C66.205,71.077,65.933,71.089,65.778,70.999z"/>
	<path fill="#06033E" d="M68.769,72.726l-1.937-1.118c-0.156-0.09-0.136-0.247,0.044-0.35l1.919-1.108
		c0.18-0.104,0.451-0.115,0.607-0.025l1.937,1.118c0.156,0.09,0.136,0.247-0.044,0.35l-1.919,1.108
		C69.196,72.804,68.924,72.816,68.769,72.726z"/>
	<path fill="#06033E" d="M71.76,74.453l-1.937-1.118c-0.156-0.09-0.136-0.247,0.044-0.35l1.919-1.108
		c0.18-0.104,0.451-0.115,0.607-0.025l1.937,1.118c0.156,0.09,0.136,0.247-0.044,0.35l-1.919,1.108
		C72.187,74.531,71.915,74.542,71.76,74.453z"/>
	<path fill="#06033E" d="M74.751,76.18l-1.937-1.118c-0.156-0.09-0.136-0.247,0.044-0.35l1.919-1.108
		c0.18-0.104,0.451-0.115,0.607-0.025l1.937,1.118c0.156,0.09,0.136,0.247-0.044,0.35l-1.919,1.108
		C75.178,76.258,74.906,76.269,74.751,76.18z"/>
	<path fill="#06033E" d="M77.742,77.907l-1.937-1.118c-0.156-0.09-0.136-0.247,0.044-0.35l1.919-1.108
		c0.18-0.104,0.451-0.115,0.607-0.025l1.937,1.118c0.156,0.09,0.136,0.247-0.044,0.35l-1.919,1.108
		C78.169,77.985,77.898,77.996,77.742,77.907z"/>
	<path fill="#06033E" d="M80.733,79.633l-1.937-1.118c-0.156-0.09-0.136-0.247,0.044-0.35l1.919-1.108
		c0.18-0.104,0.451-0.115,0.607-0.025l1.937,1.118c0.156,0.09,0.136,0.247-0.044,0.35l-1.919,1.108
		C81.16,79.712,80.889,79.723,80.733,79.633z"/>
	<path fill="#06033E" d="M83.724,81.36l-1.937-1.118c-0.156-0.09-0.136-0.247,0.044-0.35l1.919-1.108
		c0.18-0.104,0.451-0.115,0.607-0.025l1.937,1.118c0.156,0.09,0.136,0.247-0.044,0.35l-1.919,1.108
		C84.151,81.439,83.88,81.45,83.724,81.36z"/>
	<path fill="#06033E" d="M86.715,83.087l-1.937-1.118c-0.156-0.09-0.136-0.247,0.044-0.35l1.919-1.108
		c0.18-0.104,0.451-0.115,0.607-0.025l1.937,1.118c0.156,0.09,0.136,0.247-0.044,0.35l-1.919,1.108
		C87.143,83.166,86.871,83.177,86.715,83.087z"/>
	<path fill="#06033E" d="M58.22,63.274l-1.937-1.118c-0.156-0.09-0.136-0.247,0.044-0.35l1.919-1.108
		c0.18-0.104,0.451-0.115,0.607-0.025l1.937,1.118c0.156,0.09,0.136,0.247-0.044,0.35l-1.919,1.108
		C58.648,63.352,58.376,63.363,58.22,63.274z"/>
	<path fill="#06033E" d="M55.244,61.555l-1.937-1.118c-0.156-0.09-0.136-0.247,0.044-0.35l1.919-1.108
		c0.18-0.104,0.451-0.115,0.607-0.025l1.937,1.118c0.156,0.09,0.136,0.247-0.044,0.35l-1.919,1.108
		C55.671,61.634,55.4,61.645,55.244,61.555z"/>
	<path fill="#06033E" d="M52.268,59.837l-1.937-1.118c-0.156-0.09-0.136-0.247,0.044-0.35l1.919-1.108
		c0.18-0.104,0.451-0.115,0.607-0.025l1.937,1.118c0.156,0.09,0.136,0.247-0.044,0.35l-1.919,1.108
		C52.695,59.915,52.423,59.927,52.268,59.837z"/>
	<path fill="#06033E" d="M49.292,58.119L47.355,57c-0.156-0.09-0.136-0.247,0.044-0.35l1.919-1.108
		c0.18-0.104,0.451-0.115,0.607-0.025l1.937,1.118c0.156,0.09,0.136,0.247-0.044,0.35l-1.919,1.108
		C49.719,58.197,49.447,58.208,49.292,58.119z"/>
	<path fill="#06033E" d="M52.352,56.352l-1.937-1.118c-0.156-0.09-0.136-0.247,0.044-0.35l0.634-0.366
		c0.18-0.104,0.451-0.115,0.607-0.025l1.937,1.118c0.156,0.09,0.136,0.247-0.044,0.35l-0.634,0.366
		C52.779,56.43,52.508,56.441,52.352,56.352z"/>
	<path fill="#06033E" d="M56.236,58.594l-1.937-1.118c-0.156-0.09-0.136-0.247,0.044-0.35l0.634-0.366
		c0.18-0.104,0.451-0.115,0.607-0.025l1.937,1.118c0.156,0.09,0.136,0.247-0.044,0.35l-0.634,0.366
		C56.663,58.673,56.392,58.684,56.236,58.594z"/>
	<path fill="#06033E" d="M59.2,60.305l-1.937-1.118c-0.156-0.09-0.136-0.247,0.044-0.35l0.634-0.366
		c0.18-0.104,0.451-0.115,0.607-0.025l1.937,1.118c0.156,0.09,0.136,0.247-0.044,0.35l-0.634,0.366
		C59.627,60.384,59.355,60.395,59.2,60.305z"/>
	<path fill="#06033E" d="M62.164,62.016l-1.937-1.118c-0.156-0.09-0.136-0.247,0.044-0.35l0.634-0.366
		c0.18-0.104,0.451-0.115,0.607-0.025l1.937,1.118c0.156,0.09,0.136,0.247-0.044,0.35l-0.634,0.366
		C62.591,62.095,62.319,62.106,62.164,62.016z"/>
	<path fill="#06033E" d="M65.128,63.728l-1.937-1.118c-0.156-0.09-0.136-0.247,0.044-0.35l0.634-0.366
		c0.18-0.104,0.451-0.115,0.607-0.025l1.937,1.118c0.156,0.09,0.136,0.247-0.044,0.35l-0.634,0.366
		C65.555,63.806,65.283,63.817,65.128,63.728z"/>
	<path fill="#06033E" d="M81.674,73.281l-1.937-1.118c-0.156-0.09-0.136-0.247,0.044-0.35l0.634-0.366
		c0.18-0.104,0.451-0.115,0.607-0.025l1.937,1.118c0.156,0.09,0.136,0.247-0.044,0.35l-0.634,0.366
		C82.101,73.359,81.83,73.371,81.674,73.281z"/>
	<path fill="#06033E" d="M84.638,74.992l-1.937-1.118c-0.156-0.09-0.136-0.247,0.044-0.35l0.634-0.366
		c0.18-0.104,0.451-0.115,0.607-0.025l1.937,1.118c0.156,0.09,0.136,0.247-0.044,0.35l-0.634,0.366
		C85.065,75.07,84.794,75.082,84.638,74.992z"/>
	<path fill="#06033E" d="M87.602,76.703l-1.937-1.118c-0.156-0.09-0.136-0.247,0.044-0.35l0.634-0.366
		c0.18-0.104,0.451-0.115,0.607-0.025l1.937,1.118c0.156,0.09,0.136,0.247-0.044,0.35l-0.634,0.366
		C88.029,76.782,87.757,76.793,87.602,76.703z"/>
	<path fill="#06033E" d="M90.566,78.414l-1.937-1.118c-0.156-0.09-0.136-0.247,0.044-0.35l0.634-0.366
		c0.18-0.104,0.451-0.115,0.607-0.025l1.937,1.118c0.156,0.09,0.136,0.247-0.044,0.35l-0.634,0.366
		C90.993,78.493,90.721,78.504,90.566,78.414z"/>
	<path fill="#06033E" d="M61.211,65.001l-1.937-1.118c-0.156-0.09-0.136-0.247,0.044-0.35l1.919-1.108
		c0.18-0.104,0.451-0.115,0.607-0.025l1.937,1.118c0.156,0.09,0.136,0.247-0.044,0.35l-1.919,1.108
		C61.639,65.079,61.367,65.09,61.211,65.001z"/>
	<path fill="#06033E" d="M64.203,66.727l-1.937-1.118c-0.156-0.09-0.136-0.247,0.044-0.35l1.919-1.108
		c0.18-0.104,0.451-0.115,0.607-0.025l1.937,1.118c0.156,0.09,0.136,0.247-0.044,0.35l-1.919,1.108
		C64.63,66.806,64.358,66.817,64.203,66.727z"/>
	<path fill="#06033E" d="M67.194,68.454l-1.937-1.118c-0.156-0.09-0.136-0.247,0.044-0.35l1.919-1.108
		c0.18-0.104,0.451-0.115,0.607-0.025l1.937,1.118c0.156,0.09,0.136,0.247-0.044,0.35L67.8,68.429
		C67.621,68.533,67.349,68.544,67.194,68.454z"/>
	<path fill="#06033E" d="M70.185,70.181l-1.937-1.118c-0.156-0.09-0.136-0.247,0.044-0.35l1.919-1.108
		c0.18-0.104,0.451-0.115,0.607-0.025l1.937,1.118c0.156,0.09,0.136,0.247-0.044,0.35l-1.919,1.108
		C70.612,70.26,70.34,70.271,70.185,70.181z"/>
	<path fill="#06033E" d="M73.176,71.908l-1.937-1.118c-0.156-0.09-0.136-0.247,0.044-0.35l1.919-1.108
		c0.18-0.104,0.451-0.115,0.607-0.025l1.937,1.118c0.156,0.09,0.136,0.247-0.044,0.35l-1.919,1.108
		C73.603,71.987,73.331,71.998,73.176,71.908z"/>
	<path fill="#06033E" d="M76.167,73.635l-1.937-1.118c-0.156-0.09-0.136-0.247,0.044-0.35l1.919-1.108
		c0.18-0.104,0.451-0.115,0.607-0.025l1.937,1.118c0.156,0.09,0.136,0.247-0.044,0.35l-1.919,1.108
		C76.594,73.714,76.323,73.725,76.167,73.635z"/>
	<path fill="#06033E" d="M79.158,75.362l-1.937-1.118c-0.156-0.09-0.136-0.247,0.044-0.35l1.919-1.108
		c0.18-0.104,0.451-0.115,0.607-0.025l1.937,1.118c0.156,0.09,0.136,0.247-0.044,0.35l-1.919,1.108
		C79.585,75.441,79.314,75.452,79.158,75.362z"/>
	<path fill="#06033E" d="M82.149,77.089l-1.937-1.118c-0.156-0.09-0.136-0.247,0.044-0.35l1.919-1.108
		c0.18-0.104,0.451-0.115,0.607-0.025l1.937,1.118c0.156,0.09,0.136,0.247-0.044,0.35l-1.919,1.108
		C82.576,77.167,82.305,77.179,82.149,77.089z"/>
	<path fill="#06033E" d="M85.14,78.816l-1.937-1.118c-0.156-0.09-0.136-0.247,0.044-0.35l1.919-1.108
		c0.18-0.104,0.451-0.115,0.607-0.025l1.937,1.118c0.156,0.09,0.136,0.247-0.044,0.35l-1.919,1.108
		C85.568,78.894,85.296,78.906,85.14,78.816z"/>
	<path fill="#06033E" d="M44.111,65.214l-5.704-3.293c-0.156-0.09-0.136-0.247,0.044-0.35l1.919-1.108
		c0.18-0.104,0.451-0.115,0.607-0.025l5.704,3.293c0.156,0.09,0.136,0.247-0.044,0.35l-1.919,1.108
		C44.538,65.292,44.266,65.303,44.111,65.214z"/>
	<path fill="#06033E" d="M80.857,86.429l-5.704-3.293c-0.156-0.09-0.136-0.247,0.044-0.35l1.919-1.108
		c0.18-0.104,0.451-0.115,0.607-0.025l5.704,3.293c0.156,0.09,0.136,0.247-0.044,0.35l-1.919,1.108
		C81.284,86.508,81.013,86.519,80.857,86.429z"/>
	<path fill="#06033E" d="M68.895,83.338l-1.937-1.118c-0.156-0.09-0.136-0.247,0.044-0.35l2.286-1.32
		c0.18-0.104,0.451-0.115,0.607-0.025l1.937,1.118c0.156,0.09,0.136,0.247-0.044,0.35l-2.286,1.32
		C69.323,83.416,69.051,83.427,68.895,83.338z"/>
	<path fill="#06033E" d="M47.174,70.797l-3.098-1.788c-0.156-0.09-0.136-0.247,0.044-0.35l2.286-1.32
		c0.18-0.104,0.451-0.115,0.607-0.025l3.098,1.788c0.156,0.09,0.136,0.247-0.044,0.35l-2.286,1.32
		C47.601,70.875,47.329,70.887,47.174,70.797z"/>
	<path fill="#06033E" d="M66.013,81.674l-3.098-1.788c-0.156-0.09-0.136-0.247,0.044-0.35l2.286-1.32
		c0.18-0.104,0.451-0.115,0.607-0.025l3.098,1.788c0.156,0.09,0.136,0.247-0.044,0.35l-2.286,1.32
		C66.441,81.752,66.169,81.764,66.013,81.674z"/>
	<path fill="#06033E" d="M51.489,73.288L48.392,71.5c-0.156-0.09-0.136-0.247,0.044-0.35l2.286-1.32
		c0.18-0.104,0.451-0.115,0.607-0.025l3.098,1.788c0.156,0.09,0.136,0.247-0.044,0.35l-2.286,1.32
		C51.917,73.367,51.645,73.378,51.489,73.288z"/>
	<path fill="#06033E" d="M51.349,69.817l13.467,7.775c0.167,0.096,0.167,0.253,0,0.349l-2.331,1.346
		c-0.167,0.096-0.438,0.096-0.605,0l-13.467-7.775L51.349,69.817z"/>
	<path fill="#06033E" d="M77.255,86.469l2.157,1.246c0.127,0.074,0.111,0.202-0.036,0.287l-0.935,0.54
		c-0.147,0.085-0.37,0.094-0.497,0.021l-2.157-1.246c-0.127-0.074-0.112-0.202,0.036-0.287l0.935-0.54
		C76.905,86.404,77.128,86.395,77.255,86.469z"/>
	<path fill="#06033E" d="M74.239,84.728l2.157,1.246c0.127,0.074,0.111,0.202-0.036,0.287l-0.935,0.54
		c-0.147,0.085-0.37,0.094-0.497,0.021l-2.157-1.246c-0.127-0.074-0.111-0.202,0.036-0.287l0.935-0.54
		C73.889,84.663,74.112,84.654,74.239,84.728z"/>
	<path fill="#06033E" d="M71.248,83.001l2.158,1.246c0.127,0.074,0.111,0.202-0.036,0.287l-0.935,0.54
		c-0.147,0.085-0.37,0.094-0.497,0.021l-2.157-1.246c-0.127-0.074-0.111-0.202,0.036-0.287l0.935-0.54
		C70.898,82.936,71.121,82.927,71.248,83.001z"/>
	<path fill="#06033E" d="M75.891,83.774l2.157,1.246c0.128,0.074,0.111,0.202-0.036,0.287l-0.935,0.54
		c-0.147,0.085-0.37,0.094-0.497,0.021l-2.157-1.246c-0.128-0.074-0.111-0.202,0.036-0.287l0.935-0.54
		C75.541,83.71,75.764,83.7,75.891,83.774z"/>
</g>
<g opacity="0.4">
	<path fill="#06033E" d="M37.04,64.946l-1.937-1.118c-0.156-0.09-0.136-0.247,0.044-0.35l2.286-1.32
		c0.18-0.104,0.451-0.115,0.607-0.025l1.937,1.118c0.156,0.09,0.136,0.247-0.044,0.35l-2.286,1.32
		C37.467,65.024,37.195,65.036,37.04,64.946z"/>
	<path fill="#06033E" d="M40.031,66.673l-1.937-1.118c-0.156-0.09-0.136-0.247,0.044-0.35l2.286-1.32
		c0.18-0.104,0.451-0.115,0.607-0.025l1.937,1.118c0.156,0.09,0.136,0.247-0.044,0.35l-2.286,1.32
		C40.458,66.751,40.187,66.763,40.031,66.673z"/>
	<path fill="#06033E" d="M43.022,68.4l-1.937-1.118c-0.156-0.09-0.136-0.247,0.044-0.35l2.286-1.32
		c0.18-0.104,0.451-0.115,0.607-0.025l1.937,1.118c0.156,0.09,0.136,0.247-0.044,0.35l-2.286,1.32
		C43.449,68.478,43.178,68.489,43.022,68.4z"/>
	<path fill="#06033E" d="M47.159,66.974l-1.937-1.118c-0.156-0.09-0.136-0.247,0.044-0.35l1.919-1.108
		c0.18-0.104,0.451-0.115,0.607-0.025l1.937,1.118c0.156,0.09,0.136,0.247-0.044,0.35l-1.919,1.108
		C47.586,67.052,47.315,67.063,47.159,66.974z"/>
	<path fill="#06033E" d="M50.15,68.7l-1.937-1.118c-0.156-0.09-0.136-0.247,0.044-0.35l1.919-1.108
		c0.18-0.104,0.451-0.115,0.607-0.025l1.937,1.118c0.156,0.09,0.136,0.247-0.044,0.35l-1.919,1.108
		C50.577,68.779,50.306,68.79,50.15,68.7z"/>
	<path fill="#06033E" d="M53.141,70.427l-1.937-1.118c-0.156-0.09-0.136-0.247,0.044-0.35l1.919-1.108
		c0.18-0.104,0.451-0.115,0.607-0.025l1.937,1.118c0.156,0.09,0.136,0.247-0.044,0.35l-1.919,1.108
		C53.568,70.506,53.297,70.517,53.141,70.427z"/>
	<path fill="#06033E" d="M56.132,72.154l-1.937-1.118c-0.156-0.09-0.136-0.247,0.044-0.35l1.919-1.108
		c0.18-0.104,0.451-0.115,0.607-0.025l1.937,1.118c0.156,0.09,0.136,0.247-0.044,0.35l-1.919,1.108
		C56.559,72.233,56.288,72.244,56.132,72.154z"/>
	<path fill="#06033E" d="M59.123,73.881l-1.937-1.118c-0.156-0.09-0.136-0.247,0.044-0.35l1.919-1.108
		c0.18-0.104,0.451-0.115,0.607-0.025l1.937,1.118c0.156,0.09,0.136,0.247-0.044,0.35l-1.919,1.108
		C59.551,73.96,59.279,73.971,59.123,73.881z"/>
	<path fill="#06033E" d="M62.115,75.608l-1.937-1.118c-0.156-0.09-0.136-0.247,0.044-0.35l1.919-1.108
		c0.18-0.104,0.451-0.115,0.607-0.025l1.937,1.118c0.156,0.09,0.136,0.247-0.044,0.35l-1.919,1.108
		C62.542,75.687,62.27,75.698,62.115,75.608z"/>
	<path fill="#06033E" d="M65.106,77.335l-1.937-1.118c-0.156-0.09-0.136-0.247,0.044-0.35l1.919-1.108
		c0.18-0.104,0.451-0.115,0.607-0.025l1.937,1.118c0.156,0.09,0.136,0.247-0.044,0.35l-1.919,1.108
		C65.533,77.414,65.261,77.425,65.106,77.335z"/>
	<path fill="#06033E" d="M68.097,79.062l-1.937-1.118c-0.156-0.09-0.136-0.247,0.044-0.35l1.919-1.108
		c0.18-0.104,0.451-0.115,0.607-0.025l1.937,1.118c0.156,0.09,0.136,0.247-0.044,0.35l-1.919,1.108
		C68.524,79.141,68.252,79.152,68.097,79.062z"/>
	<path fill="#06033E" d="M71.088,80.789l-1.937-1.118c-0.156-0.09-0.136-0.247,0.044-0.35l1.919-1.108
		c0.18-0.104,0.451-0.115,0.607-0.025l1.937,1.118c0.156,0.09,0.136,0.247-0.044,0.35l-1.919,1.108
		C71.515,80.867,71.243,80.879,71.088,80.789z"/>
	<path fill="#06033E" d="M74.079,82.516l-1.937-1.118c-0.156-0.09-0.136-0.247,0.044-0.35l1.919-1.108
		c0.18-0.104,0.451-0.115,0.607-0.025l1.937,1.118c0.156,0.09,0.136,0.247-0.044,0.35l-1.919,1.108
		C74.506,82.594,74.234,82.606,74.079,82.516z"/>
	<path fill="#06033E" d="M51.566,66.156l-1.937-1.118c-0.156-0.09-0.136-0.247,0.044-0.35l1.919-1.108
		c0.18-0.104,0.451-0.115,0.607-0.025l1.937,1.118c0.156,0.09,0.136,0.247-0.044,0.35l-1.919,1.108
		C51.993,66.234,51.722,66.246,51.566,66.156z"/>
	<path fill="#06033E" d="M48.53,64.403l-1.937-1.118c-0.156-0.09-0.136-0.247,0.044-0.35l1.919-1.108
		c0.18-0.104,0.451-0.115,0.607-0.025L51.1,62.92c0.156,0.09,0.136,0.247-0.044,0.35l-1.919,1.108
		C48.958,64.482,48.686,64.493,48.53,64.403z"/>
	<path fill="#06033E" d="M45.49,62.648l-4.172-2.408c-0.156-0.09-0.136-0.247,0.044-0.35l1.919-1.108
		c0.18-0.104,0.451-0.115,0.607-0.025l4.172,2.408c0.156,0.09,0.136,0.247-0.044,0.35l-1.919,1.108
		C45.917,62.726,45.645,62.738,45.49,62.648z"/>
	<path fill="#06033E" d="M47.615,60.513l-3.385-1.954c-0.156-0.09-0.136-0.247,0.044-0.35l1.919-1.108
		c0.18-0.104,0.451-0.115,0.607-0.025l3.385,1.955c0.156,0.09,0.136,0.247-0.044,0.35l-1.919,1.108
		C48.042,60.591,47.771,60.603,47.615,60.513z"/>
	<path fill="#06033E" d="M54.557,67.883l-1.937-1.118c-0.156-0.09-0.136-0.247,0.044-0.35l1.919-1.108
		c0.18-0.104,0.451-0.115,0.607-0.025l1.937,1.118c0.156,0.09,0.136,0.247-0.044,0.35l-1.919,1.108
		C54.984,67.961,54.713,67.973,54.557,67.883z"/>
	<path fill="#06033E" d="M57.548,69.61l-1.937-1.118c-0.156-0.09-0.136-0.247,0.044-0.35l1.919-1.108
		c0.18-0.104,0.451-0.115,0.607-0.025l1.937,1.118c0.156,0.09,0.136,0.247-0.044,0.35l-1.919,1.108
		C57.976,69.688,57.704,69.7,57.548,69.61z"/>
	<path fill="#06033E" d="M60.54,71.337l-1.937-1.118c-0.156-0.09-0.136-0.247,0.044-0.35l1.919-1.108
		c0.18-0.104,0.451-0.115,0.607-0.025l1.937,1.118c0.156,0.09,0.136,0.247-0.044,0.35l-1.919,1.108
		C60.967,71.415,60.695,71.427,60.54,71.337z"/>
	<path fill="#06033E" d="M63.531,73.064l-1.937-1.118c-0.156-0.09-0.136-0.247,0.044-0.35l1.919-1.108
		c0.18-0.104,0.451-0.115,0.607-0.025L66.1,71.58c0.156,0.09,0.136,0.247-0.044,0.35l-1.919,1.108
		C63.958,73.142,63.686,73.153,63.531,73.064z"/>
	<path fill="#06033E" d="M66.522,74.791l-1.937-1.118c-0.156-0.09-0.136-0.247,0.044-0.35l1.919-1.108
		c0.18-0.104,0.451-0.115,0.607-0.025l1.937,1.118c0.156,0.09,0.136,0.247-0.044,0.35l-1.919,1.108
		C66.949,74.869,66.677,74.88,66.522,74.791z"/>
	<path fill="#06033E" d="M69.513,76.517l-1.937-1.118c-0.156-0.09-0.136-0.247,0.044-0.35l1.919-1.108
		c0.18-0.104,0.451-0.115,0.607-0.025l1.937,1.118c0.156,0.09,0.136,0.247-0.044,0.35l-1.919,1.108
		C69.94,76.596,69.668,76.607,69.513,76.517z"/>
	<path fill="#06033E" d="M72.504,78.244l-1.937-1.118c-0.156-0.09-0.136-0.247,0.044-0.35l1.919-1.108
		c0.18-0.104,0.451-0.115,0.607-0.025l1.937,1.118c0.156,0.09,0.136,0.247-0.044,0.35l-1.919,1.108
		C72.931,78.323,72.659,78.334,72.504,78.244z"/>
	<path fill="#06033E" d="M75.495,79.971l-1.937-1.118c-0.156-0.09-0.136-0.247,0.044-0.35l1.919-1.108
		c0.18-0.104,0.451-0.115,0.607-0.025l1.937,1.118c0.156,0.09,0.136,0.247-0.044,0.35l-1.919,1.108
		C75.922,80.05,75.651,80.061,75.495,79.971z"/>
	<path fill="#06033E" d="M78.486,81.698l-1.937-1.118c-0.156-0.09-0.136-0.247,0.044-0.35l1.919-1.108
		c0.18-0.104,0.451-0.115,0.607-0.025l1.937,1.118c0.156,0.09,0.136,0.247-0.044,0.35l-1.919,1.108
		C78.913,81.777,78.642,81.788,78.486,81.698z"/>
	<path fill="#06033E" d="M83.804,84.768l-4.226-2.44c-0.156-0.09-0.136-0.247,0.044-0.35l1.919-1.108
		c0.18-0.104,0.451-0.115,0.607-0.025l4.226,2.44c0.156,0.09,0.136,0.247-0.044,0.35l-1.919,1.108
		C84.231,84.847,83.959,84.858,83.804,84.768z"/>
	<path fill="#06033E" d="M89.627,81.406l-3.567-2.059c-0.156-0.09-0.136-0.247,0.044-0.35l1.919-1.108
		c0.18-0.104,0.451-0.115,0.607-0.025l3.567,2.059c0.156,0.09,0.136,0.247-0.044,0.35l-1.919,1.108
		C90.054,81.485,89.783,81.496,89.627,81.406z"/>
	<path fill="#06033E" d="M59.795,67.545l-1.937-1.118c-0.156-0.09-0.136-0.247,0.044-0.35l1.919-1.108
		c0.18-0.104,0.451-0.115,0.607-0.025l1.937,1.118c0.156,0.09,0.136,0.247-0.044,0.35l-1.919,1.108
		C60.223,67.624,59.951,67.635,59.795,67.545z"/>
	<path fill="#06033E" d="M56.73,65.775l-1.937-1.118c-0.156-0.09-0.136-0.247,0.044-0.35l1.919-1.108
		c0.18-0.104,0.451-0.115,0.607-0.025l1.937,1.118c0.156,0.09,0.136,0.247-0.044,0.35l-1.919,1.108
		C57.157,65.854,56.885,65.865,56.73,65.775z"/>
	<path fill="#06033E" d="M53.664,64.005l-1.937-1.118c-0.156-0.09-0.136-0.247,0.044-0.35l1.919-1.108
		c0.18-0.104,0.451-0.115,0.607-0.025l1.937,1.118c0.156,0.09,0.136,0.247-0.044,0.35l-1.919,1.108
		C54.091,64.084,53.82,64.095,53.664,64.005z"/>
	<path fill="#06033E" d="M50.599,62.235l-1.937-1.118c-0.156-0.09-0.136-0.247,0.044-0.35l1.919-1.108
		c0.18-0.104,0.451-0.115,0.607-0.025l1.937,1.118c0.156,0.09,0.136,0.247-0.044,0.35l-1.919,1.108
		C51.026,62.314,50.754,62.325,50.599,62.235z"/>
	<path fill="#06033E" d="M62.786,69.272l-1.937-1.118c-0.156-0.09-0.136-0.247,0.044-0.35l1.919-1.108
		c0.18-0.104,0.451-0.115,0.607-0.025l1.937,1.118c0.156,0.09,0.136,0.247-0.044,0.35l-1.919,1.108
		C63.214,69.35,62.942,69.362,62.786,69.272z"/>
	<path fill="#06033E" d="M65.778,70.999l-1.937-1.118c-0.156-0.09-0.136-0.247,0.044-0.35l1.919-1.108
		c0.18-0.104,0.451-0.115,0.607-0.025l1.937,1.118c0.156,0.09,0.136,0.247-0.044,0.35l-1.919,1.108
		C66.205,71.077,65.933,71.089,65.778,70.999z"/>
	<path fill="#06033E" d="M68.769,72.726l-1.937-1.118c-0.156-0.09-0.136-0.247,0.044-0.35l1.919-1.108
		c0.18-0.104,0.451-0.115,0.607-0.025l1.937,1.118c0.156,0.09,0.136,0.247-0.044,0.35l-1.919,1.108
		C69.196,72.804,68.924,72.816,68.769,72.726z"/>
	<path fill="#06033E" d="M71.76,74.453l-1.937-1.118c-0.156-0.09-0.136-0.247,0.044-0.35l1.919-1.108
		c0.18-0.104,0.451-0.115,0.607-0.025l1.937,1.118c0.156,0.09,0.136,0.247-0.044,0.35l-1.919,1.108
		C72.187,74.531,71.915,74.542,71.76,74.453z"/>
	<path fill="#06033E" d="M74.751,76.18l-1.937-1.118c-0.156-0.09-0.136-0.247,0.044-0.35l1.919-1.108
		c0.18-0.104,0.451-0.115,0.607-0.025l1.937,1.118c0.156,0.09,0.136,0.247-0.044,0.35l-1.919,1.108
		C75.178,76.258,74.906,76.269,74.751,76.18z"/>
	<path fill="#06033E" d="M77.742,77.907l-1.937-1.118c-0.156-0.09-0.136-0.247,0.044-0.35l1.919-1.108
		c0.18-0.104,0.451-0.115,0.607-0.025l1.937,1.118c0.156,0.09,0.136,0.247-0.044,0.35l-1.919,1.108
		C78.169,77.985,77.898,77.996,77.742,77.907z"/>
	<path fill="#06033E" d="M80.733,79.633l-1.937-1.118c-0.156-0.09-0.136-0.247,0.044-0.35l1.919-1.108
		c0.18-0.104,0.451-0.115,0.607-0.025l1.937,1.118c0.156,0.09,0.136,0.247-0.044,0.35l-1.919,1.108
		C81.16,79.712,80.889,79.723,80.733,79.633z"/>
	<path fill="#06033E" d="M83.724,81.36l-1.937-1.118c-0.156-0.09-0.136-0.247,0.044-0.35l1.919-1.108
		c0.18-0.104,0.451-0.115,0.607-0.025l1.937,1.118c0.156,0.09,0.136,0.247-0.044,0.35l-1.919,1.108
		C84.151,81.439,83.88,81.45,83.724,81.36z"/>
	<path fill="#06033E" d="M86.715,83.087l-1.937-1.118c-0.156-0.09-0.136-0.247,0.044-0.35l1.919-1.108
		c0.18-0.104,0.451-0.115,0.607-0.025l1.937,1.118c0.156,0.09,0.136,0.247-0.044,0.35l-1.919,1.108
		C87.143,83.166,86.871,83.177,86.715,83.087z"/>
	<path fill="#06033E" d="M58.22,63.274l-1.937-1.118c-0.156-0.09-0.136-0.247,0.044-0.35l1.919-1.108
		c0.18-0.104,0.451-0.115,0.607-0.025l1.937,1.118c0.156,0.09,0.136,0.247-0.044,0.35l-1.919,1.108
		C58.648,63.352,58.376,63.363,58.22,63.274z"/>
	<path fill="#06033E" d="M55.244,61.555l-1.937-1.118c-0.156-0.09-0.136-0.247,0.044-0.35l1.919-1.108
		c0.18-0.104,0.451-0.115,0.607-0.025l1.937,1.118c0.156,0.09,0.136,0.247-0.044,0.35l-1.919,1.108
		C55.671,61.634,55.4,61.645,55.244,61.555z"/>
	<path fill="#06033E" d="M52.268,59.837l-1.937-1.118c-0.156-0.09-0.136-0.247,0.044-0.35l1.919-1.108
		c0.18-0.104,0.451-0.115,0.607-0.025l1.937,1.118c0.156,0.09,0.136,0.247-0.044,0.35l-1.919,1.108
		C52.695,59.915,52.423,59.927,52.268,59.837z"/>
	<path fill="#06033E" d="M49.292,58.119L47.355,57c-0.156-0.09-0.136-0.247,0.044-0.35l1.919-1.108
		c0.18-0.104,0.451-0.115,0.607-0.025l1.937,1.118c0.156,0.09,0.136,0.247-0.044,0.35l-1.919,1.108
		C49.719,58.197,49.447,58.208,49.292,58.119z"/>
	<path fill="#06033E" d="M52.352,56.352l-1.937-1.118c-0.156-0.09-0.136-0.247,0.044-0.35l0.634-0.366
		c0.18-0.104,0.451-0.115,0.607-0.025l1.937,1.118c0.156,0.09,0.136,0.247-0.044,0.35l-0.634,0.366
		C52.779,56.43,52.508,56.441,52.352,56.352z"/>
	<path fill="#06033E" d="M56.236,58.594l-1.937-1.118c-0.156-0.09-0.136-0.247,0.044-0.35l0.634-0.366
		c0.18-0.104,0.451-0.115,0.607-0.025l1.937,1.118c0.156,0.09,0.136,0.247-0.044,0.35l-0.634,0.366
		C56.663,58.673,56.392,58.684,56.236,58.594z"/>
	<path fill="#06033E" d="M59.2,60.305l-1.937-1.118c-0.156-0.09-0.136-0.247,0.044-0.35l0.634-0.366
		c0.18-0.104,0.451-0.115,0.607-0.025l1.937,1.118c0.156,0.09,0.136,0.247-0.044,0.35l-0.634,0.366
		C59.627,60.384,59.355,60.395,59.2,60.305z"/>
	<path fill="#06033E" d="M62.164,62.016l-1.937-1.118c-0.156-0.09-0.136-0.247,0.044-0.35l0.634-0.366
		c0.18-0.104,0.451-0.115,0.607-0.025l1.937,1.118c0.156,0.09,0.136,0.247-0.044,0.35l-0.634,0.366
		C62.591,62.095,62.319,62.106,62.164,62.016z"/>
	<path fill="#06033E" d="M65.128,63.728l-1.937-1.118c-0.156-0.09-0.136-0.247,0.044-0.35l0.634-0.366
		c0.18-0.104,0.451-0.115,0.607-0.025l1.937,1.118c0.156,0.09,0.136,0.247-0.044,0.35l-0.634,0.366
		C65.555,63.806,65.283,63.817,65.128,63.728z"/>
	<path fill="#06033E" d="M81.674,73.281l-1.937-1.118c-0.156-0.09-0.136-0.247,0.044-0.35l0.634-0.366
		c0.18-0.104,0.451-0.115,0.607-0.025l1.937,1.118c0.156,0.09,0.136,0.247-0.044,0.35l-0.634,0.366
		C82.101,73.359,81.83,73.371,81.674,73.281z"/>
	<path fill="#06033E" d="M84.638,74.992l-1.937-1.118c-0.156-0.09-0.136-0.247,0.044-0.35l0.634-0.366
		c0.18-0.104,0.451-0.115,0.607-0.025l1.937,1.118c0.156,0.09,0.136,0.247-0.044,0.35l-0.634,0.366
		C85.065,75.07,84.794,75.082,84.638,74.992z"/>
	<path fill="#06033E" d="M87.602,76.703l-1.937-1.118c-0.156-0.09-0.136-0.247,0.044-0.35l0.634-0.366
		c0.18-0.104,0.451-0.115,0.607-0.025l1.937,1.118c0.156,0.09,0.136,0.247-0.044,0.35l-0.634,0.366
		C88.029,76.782,87.757,76.793,87.602,76.703z"/>
	<path fill="#06033E" d="M90.566,78.414l-1.937-1.118c-0.156-0.09-0.136-0.247,0.044-0.35l0.634-0.366
		c0.18-0.104,0.451-0.115,0.607-0.025l1.937,1.118c0.156,0.09,0.136,0.247-0.044,0.35l-0.634,0.366
		C90.993,78.493,90.721,78.504,90.566,78.414z"/>
	<path fill="#06033E" d="M61.211,65.001l-1.937-1.118c-0.156-0.09-0.136-0.247,0.044-0.35l1.919-1.108
		c0.18-0.104,0.451-0.115,0.607-0.025l1.937,1.118c0.156,0.09,0.136,0.247-0.044,0.35l-1.919,1.108
		C61.639,65.079,61.367,65.09,61.211,65.001z"/>
	<path fill="#06033E" d="M64.203,66.727l-1.937-1.118c-0.156-0.09-0.136-0.247,0.044-0.35l1.919-1.108
		c0.18-0.104,0.451-0.115,0.607-0.025l1.937,1.118c0.156,0.09,0.136,0.247-0.044,0.35l-1.919,1.108
		C64.63,66.806,64.358,66.817,64.203,66.727z"/>
	<path fill="#06033E" d="M67.194,68.454l-1.937-1.118c-0.156-0.09-0.136-0.247,0.044-0.35l1.919-1.108
		c0.18-0.104,0.451-0.115,0.607-0.025l1.937,1.118c0.156,0.09,0.136,0.247-0.044,0.35L67.8,68.429
		C67.621,68.533,67.349,68.544,67.194,68.454z"/>
	<path fill="#06033E" d="M70.185,70.181l-1.937-1.118c-0.156-0.09-0.136-0.247,0.044-0.35l1.919-1.108
		c0.18-0.104,0.451-0.115,0.607-0.025l1.937,1.118c0.156,0.09,0.136,0.247-0.044,0.35l-1.919,1.108
		C70.612,70.26,70.34,70.271,70.185,70.181z"/>
	<path fill="#06033E" d="M73.176,71.908l-1.937-1.118c-0.156-0.09-0.136-0.247,0.044-0.35l1.919-1.108
		c0.18-0.104,0.451-0.115,0.607-0.025l1.937,1.118c0.156,0.09,0.136,0.247-0.044,0.35l-1.919,1.108
		C73.603,71.987,73.331,71.998,73.176,71.908z"/>
	<path fill="#06033E" d="M76.167,73.635l-1.937-1.118c-0.156-0.09-0.136-0.247,0.044-0.35l1.919-1.108
		c0.18-0.104,0.451-0.115,0.607-0.025l1.937,1.118c0.156,0.09,0.136,0.247-0.044,0.35l-1.919,1.108
		C76.594,73.714,76.323,73.725,76.167,73.635z"/>
	<path fill="#06033E" d="M79.158,75.362l-1.937-1.118c-0.156-0.09-0.136-0.247,0.044-0.35l1.919-1.108
		c0.18-0.104,0.451-0.115,0.607-0.025l1.937,1.118c0.156,0.09,0.136,0.247-0.044,0.35l-1.919,1.108
		C79.585,75.441,79.314,75.452,79.158,75.362z"/>
	<path fill="#06033E" d="M82.149,77.089l-1.937-1.118c-0.156-0.09-0.136-0.247,0.044-0.35l1.919-1.108
		c0.18-0.104,0.451-0.115,0.607-0.025l1.937,1.118c0.156,0.09,0.136,0.247-0.044,0.35l-1.919,1.108
		C82.576,77.167,82.305,77.179,82.149,77.089z"/>
	<path fill="#06033E" d="M85.14,78.816l-1.937-1.118c-0.156-0.09-0.136-0.247,0.044-0.35l1.919-1.108
		c0.18-0.104,0.451-0.115,0.607-0.025l1.937,1.118c0.156,0.09,0.136,0.247-0.044,0.35l-1.919,1.108
		C85.568,78.894,85.296,78.906,85.14,78.816z"/>
	<path fill="#06033E" d="M44.111,65.214l-5.704-3.293c-0.156-0.09-0.136-0.247,0.044-0.35l1.919-1.108
		c0.18-0.104,0.451-0.115,0.607-0.025l5.704,3.293c0.156,0.09,0.136,0.247-0.044,0.35l-1.919,1.108
		C44.538,65.292,44.266,65.303,44.111,65.214z"/>
	<path fill="#06033E" d="M80.857,86.429l-5.704-3.293c-0.156-0.09-0.136-0.247,0.044-0.35l1.919-1.108
		c0.18-0.104,0.451-0.115,0.607-0.025l5.704,3.293c0.156,0.09,0.136,0.247-0.044,0.35l-1.919,1.108
		C81.284,86.508,81.013,86.519,80.857,86.429z"/>
	<path fill="#06033E" d="M68.895,83.338l-1.937-1.118c-0.156-0.09-0.136-0.247,0.044-0.35l2.286-1.32
		c0.18-0.104,0.451-0.115,0.607-0.025l1.937,1.118c0.156,0.09,0.136,0.247-0.044,0.35l-2.286,1.32
		C69.323,83.416,69.051,83.427,68.895,83.338z"/>
	<path fill="#06033E" d="M47.174,70.797l-3.098-1.788c-0.156-0.09-0.136-0.247,0.044-0.35l2.286-1.32
		c0.18-0.104,0.451-0.115,0.607-0.025l3.098,1.788c0.156,0.09,0.136,0.247-0.044,0.35l-2.286,1.32
		C47.601,70.875,47.329,70.887,47.174,70.797z"/>
	<path fill="#06033E" d="M66.013,81.674l-3.098-1.788c-0.156-0.09-0.136-0.247,0.044-0.35l2.286-1.32
		c0.18-0.104,0.451-0.115,0.607-0.025l3.098,1.788c0.156,0.09,0.136,0.247-0.044,0.35l-2.286,1.32
		C66.441,81.752,66.169,81.764,66.013,81.674z"/>
	<path fill="#06033E" d="M51.489,73.288L48.392,71.5c-0.156-0.09-0.136-0.247,0.044-0.35l2.286-1.32
		c0.18-0.104,0.451-0.115,0.607-0.025l3.098,1.788c0.156,0.09,0.136,0.247-0.044,0.35l-2.286,1.32
		C51.917,73.367,51.645,73.378,51.489,73.288z"/>
	<path fill="#06033E" d="M51.349,69.817l13.467,7.775c0.167,0.096,0.167,0.253,0,0.349l-2.331,1.346
		c-0.167,0.096-0.438,0.096-0.605,0l-13.467-7.775L51.349,69.817z"/>
	<path fill="#06033E" d="M77.255,86.469l2.157,1.246c0.127,0.074,0.111,0.202-0.036,0.287l-0.935,0.54
		c-0.147,0.085-0.37,0.094-0.497,0.021l-2.157-1.246c-0.127-0.074-0.112-0.202,0.036-0.287l0.935-0.54
		C76.905,86.404,77.128,86.395,77.255,86.469z"/>
	<path fill="#06033E" d="M74.239,84.728l2.157,1.246c0.127,0.074,0.111,0.202-0.036,0.287l-0.935,0.54
		c-0.147,0.085-0.37,0.094-0.497,0.021l-2.157-1.246c-0.127-0.074-0.111-0.202,0.036-0.287l0.935-0.54
		C73.889,84.663,74.112,84.654,74.239,84.728z"/>
	<path fill="#06033E" d="M71.248,83.001l2.158,1.246c0.127,0.074,0.111,0.202-0.036,0.287l-0.935,0.54
		c-0.147,0.085-0.37,0.094-0.497,0.021l-2.157-1.246c-0.127-0.074-0.111-0.202,0.036-0.287l0.935-0.54
		C70.898,82.936,71.121,82.927,71.248,83.001z"/>
	<path fill="#06033E" d="M75.891,83.774l2.157,1.246c0.128,0.074,0.111,0.202-0.036,0.287l-0.935,0.54
		c-0.147,0.085-0.37,0.094-0.497,0.021l-2.157-1.246c-0.128-0.074-0.111-0.202,0.036-0.287l0.935-0.54
		C75.541,83.71,75.764,83.7,75.891,83.774z"/>
</g>
<radialGradient id="SVGID_4_" cx="40.7326" cy="17.6513" r="88.7136" gradientUnits="userSpaceOnUse">
	<stop  offset="0" style="stop-color:#E39A65"/>
	<stop  offset="0.4742" style="stop-color:#A92FFB"/>
	<stop  offset="0.5875" style="stop-color:#891CFB"/>
	<stop  offset="0.7262" style="stop-color:#6507FA"/>
	<stop  offset="1" style="stop-color:#3919BB"/>
</radialGradient>
<path fill="url(#SVGID_4_)" d="M107.547,80.28L50.403,47.288c-0.899-0.519-1.368-1.783-1.047-2.823L62.279,2.507
	c0.32-1.04,1.308-1.463,2.207-0.945l57.144,32.992c0.899,0.519,1.368,1.783,1.047,2.823l-12.923,41.958
	C109.433,80.376,108.446,80.799,107.547,80.28z"/>
<linearGradient id="SVGID_5_" gradientUnits="userSpaceOnUse" x1="50.4833" y1="40.9388" x2="121.5708" y2="40.9388">
	<stop  offset="0" style="stop-color:#3919BB"/>
	<stop  offset="1" style="stop-color:#6507FA"/>
</linearGradient>
<path fill="url(#SVGID_5_)" d="M107.008,78.811L51.582,46.784c-0.86-0.496-1.309-1.706-1.002-2.702L62.934,3.971
	c0.306-0.996,1.252-1.4,2.112-0.904l55.426,32.027c0.86,0.496,1.309,1.706,1.002,2.702L109.12,77.907
	C108.813,78.903,107.868,79.307,107.008,78.811z"/>
<path opacity="0.4" fill="#06033E" d="M107.008,78.811L51.582,46.784c-0.86-0.496-1.309-1.706-1.002-2.702L62.934,3.971
	c0.306-0.996,1.252-1.4,2.112-0.904l55.426,32.027c0.86,0.496,1.309,1.706,1.002,2.702L109.12,77.907
	C108.813,78.903,107.868,79.307,107.008,78.811z"/>
<path opacity="0.4" fill="#06033E" d="M107.008,78.811L51.582,46.784c-0.86-0.496-1.309-1.706-1.002-2.702L62.934,3.971
	c0.306-0.996,1.252-1.4,2.112-0.904l55.426,32.027c0.86,0.496,1.309,1.706,1.002,2.702L109.12,77.907
	C108.813,78.903,107.868,79.307,107.008,78.811z"/>
<path opacity="0.5" fill="#06033E" d="M104.03,66.553L66.51,44.89c-0.59-0.341-0.898-1.171-0.688-1.854l8.485-27.55
	c0.21-0.683,0.859-0.961,1.449-0.62l37.521,21.663c0.59,0.341,0.898,1.171,0.688,1.854l-8.485,27.55
	C105.269,66.616,104.62,66.894,104.03,66.553z"/>
<g>
	<radialGradient id="SVGID_6_" cx="8.3473" cy="-1.2931" r="138.1691" gradientUnits="userSpaceOnUse">
		<stop  offset="0" style="stop-color:#E39A65"/>
		<stop  offset="0.4742" style="stop-color:#A92FFB"/>
		<stop  offset="0.5875" style="stop-color:#891CFB"/>
		<stop  offset="0.7262" style="stop-color:#6507FA"/>
		<stop  offset="1" style="stop-color:#3919BB"/>
	</radialGradient>
	<path fill="url(#SVGID_6_)" d="M98.961,67.218L61.44,45.555c-0.59-0.341-0.898-1.171-0.688-1.854l8.485-27.55
		c0.21-0.683,0.859-0.961,1.449-0.62l37.521,21.663c0.59,0.341,0.898,1.171,0.688,1.854l-8.485,27.55
		C100.2,67.281,99.551,67.559,98.961,67.218z"/>
</g>
<g opacity="0.5">
	<path fill="#06033E" d="M98.961,67.218L61.44,45.555c-0.59-0.341-0.898-1.171-0.688-1.854l8.485-27.55
		c0.21-0.683,0.859-0.961,1.449-0.62l37.521,21.663c0.59,0.341,0.898,1.171,0.688,1.854l-8.485,27.55
		C100.2,67.281,99.551,67.559,98.961,67.218z"/>
</g>
<path fill="#FFFFFF" d="M108.207,37.194L70.686,15.532c-0.37-0.214-0.762-0.184-1.056,0.036c0.177-0.005,0.362,0.035,0.542,0.139
	l37.521,21.663c0.59,0.341,0.898,1.171,0.688,1.854l-8.485,27.55c-0.079,0.255-0.218,0.453-0.393,0.584
	c0.402-0.012,0.761-0.285,0.907-0.759l8.485-27.55C109.105,38.365,108.797,37.535,108.207,37.194z"/>
<path opacity="0.4" fill="#06033E" d="M51.639,89.715c-0.517,0-1.012-0.107-1.39-0.326v0l-15.033-8.679
	c-0.398-0.23-0.618-0.559-0.618-0.926c0-0.426,0.302-0.845,0.829-1.149l7.738-4.468c0.946-0.545,2.333-0.599,3.161-0.122
	l15.032,8.679c0.398,0.23,0.618,0.559,0.618,0.926c0,0.426-0.302,0.845-0.829,1.149l-7.738,4.468
	C52.895,89.564,52.252,89.715,51.639,89.715z M44.942,74.159c-0.543,0-1.121,0.131-1.56,0.384l-7.738,4.467
	c-0.389,0.225-0.612,0.507-0.612,0.773c0,0.263,0.218,0.445,0.401,0.55l15.033,8.679c0.682,0.393,1.93,0.338,2.726-0.122
	l7.738-4.467c0.389-0.225,0.612-0.506,0.612-0.773c0-0.263-0.218-0.445-0.401-0.55l-15.032-8.679
	C45.803,74.245,45.384,74.159,44.942,74.159z"/>
<g>
	<g>
		<path fill="#FFFFFF" d="M79.825,29.985l-2.32-1.339c-0.215-0.124-0.331-0.423-0.258-0.667l0,0
			c0.073-0.244,0.306-0.341,0.522-0.217l2.32,1.339c0.215,0.124,0.331,0.423,0.258,0.667l0,0
			C80.274,30.012,80.04,30.109,79.825,29.985z"/>
		<path fill="#FFFFFF" d="M85.351,33.175L81.93,31.2c-0.215-0.124-0.331-0.423-0.258-0.667l0,0c0.073-0.244,0.306-0.341,0.522-0.217
			l3.42,1.975c0.215,0.124,0.331,0.423,0.258,0.667l0,0C85.799,33.202,85.566,33.299,85.351,33.175z"/>
		<path fill="#FFFFFF" d="M75.147,40.312l-2.32-1.339c-0.215-0.124-0.331-0.423-0.258-0.667l0,0
			c0.073-0.244,0.306-0.341,0.522-0.217l2.32,1.339c0.215,0.124,0.331,0.423,0.258,0.667l0,0
			C75.596,40.339,75.362,40.437,75.147,40.312z"/>
		<path fill="#FFFFFF" d="M80.073,43.156l-3.42-1.975c-0.215-0.124-0.331-0.423-0.258-0.667l0,0
			c0.073-0.244,0.306-0.341,0.522-0.217l3.42,1.975c0.215,0.124,0.331,0.423,0.258,0.667l0,0
			C80.521,43.183,80.288,43.28,80.073,43.156z"/>
		<path fill="#FFFFFF" d="M72.877,28.145l-1.449-0.837c-0.215-0.124-0.331-0.423-0.258-0.667l0,0
			c0.073-0.244,0.306-0.341,0.522-0.217l1.449,0.837c0.215,0.124,0.331,0.423,0.258,0.667l0,0
			C73.325,28.172,73.092,28.269,72.877,28.145z"/>
		<path fill="#FFFFFF" d="M77.237,32.833l-4.427-2.556c-0.215-0.124-0.331-0.423-0.258-0.667l0,0
			c0.073-0.244,0.306-0.341,0.522-0.217l4.427,2.556c0.215,0.124,0.331,0.423,0.258,0.667l0,0
			C77.686,32.861,77.452,32.958,77.237,32.833z"/>
		<path fill="#FFFFFF" d="M73.153,34.819l-1.449-0.837c-0.215-0.124-0.331-0.423-0.258-0.667l0,0
			c0.073-0.244,0.306-0.341,0.522-0.217l1.449,0.837c0.215,0.124,0.331,0.423,0.258,0.667h0
			C73.602,34.846,73.369,34.943,73.153,34.819z"/>
		<path fill="#FFFFFF" d="M80.607,47.807l-3.87-2.235c-0.215-0.124-0.331-0.423-0.258-0.667l0,0
			c0.073-0.244,0.306-0.341,0.522-0.217l3.87,2.235c0.215,0.124,0.331,0.423,0.258,0.667l0,0
			C81.055,47.834,80.822,47.932,80.607,47.807z"/>
		<path fill="#FFFFFF" d="M71.529,38.224l-0.93-0.537c-0.215-0.124-0.331-0.423-0.258-0.667l0,0
			c0.073-0.244,0.306-0.341,0.522-0.217l0.93,0.537c0.215,0.124,0.331,0.423,0.258,0.667l0,0
			C71.978,38.251,71.744,38.348,71.529,38.224z"/>
		<path fill="#FFFFFF" d="M70.649,42.058l-1.155-0.667c-0.215-0.124-0.331-0.423-0.258-0.667v0c0.073-0.244,0.306-0.341,0.522-0.217
			l1.155,0.667c0.215,0.124,0.331,0.423,0.258,0.667l0,0C71.098,42.085,70.864,42.182,70.649,42.058z"/>
		<path fill="#FFFFFF" d="M75.143,44.653l-3.045-1.758c-0.215-0.124-0.331-0.423-0.258-0.667l0,0
			c0.073-0.244,0.306-0.341,0.522-0.217l3.045,1.758c0.215,0.124,0.331,0.423,0.258,0.667l0,0
			C75.591,44.68,75.358,44.777,75.143,44.653z"/>
		<path fill="#FFFFFF" d="M71.131,44.508l-2.19-1.264c-0.215-0.124-0.331-0.423-0.258-0.667l0,0
			c0.073-0.244,0.306-0.341,0.522-0.217l2.19,1.264c0.215,0.124,0.331,0.423,0.258,0.667l0,0
			C71.58,44.535,71.346,44.632,71.131,44.508z"/>
		<path fill="#FFFFFF" d="M83.927,49.734l-1.406-0.812c-0.215-0.124-0.331-0.423-0.258-0.667l0,0
			c0.073-0.244,0.306-0.341,0.522-0.217l1.406,0.812c0.215,0.124,0.331,0.423,0.258,0.667l0,0
			C84.376,49.761,84.142,49.858,83.927,49.734z"/>
		<path fill="#FFFFFF" d="M78.544,37.931l-3.87-2.235c-0.215-0.124-0.331-0.423-0.258-0.667l0,0
			c0.073-0.244,0.306-0.341,0.522-0.217l3.87,2.235c0.215,0.124,0.331,0.423,0.258,0.667l0,0
			C78.992,37.958,78.759,38.055,78.544,37.931z"/>
	</g>
	<path fill="#E8975B" d="M79.002,36.024l-6.746-3.895c-0.215-0.124-0.331-0.423-0.258-0.667l0,0
		c0.073-0.244,0.306-0.341,0.522-0.217l6.746,3.895c0.215,0.124,0.331,0.423,0.258,0.667l0,0
		C79.451,36.051,79.218,36.148,79.002,36.024z"/>
	<path fill="#E8975B" d="M75.022,38.069l-3.87-2.235c-0.215-0.124-0.331-0.423-0.258-0.667l0,0c0.073-0.244,0.306-0.341,0.522-0.217
		l3.87,2.235c0.215,0.124,0.331,0.423,0.258,0.667l0,0C75.471,38.096,75.237,38.193,75.022,38.069z"/>
	<path fill="#E8975B" d="M81.479,39.625l-1.406-0.812c-0.215-0.124-0.331-0.423-0.258-0.667l0,0
		c0.073-0.244,0.306-0.341,0.522-0.217l1.406,0.812c0.215,0.124,0.331,0.423,0.258,0.667l0,0
		C81.928,39.653,81.694,39.75,81.479,39.625z"/>
	<path fill="#E8975B" d="M95.783,39.198l-8.327-4.808c-0.215-0.124-0.331-0.423-0.258-0.667l0,0
		c0.073-0.244,0.306-0.341,0.522-0.217l8.327,4.808c0.215,0.124,0.331,0.423,0.258,0.667l0,0
		C96.232,39.225,95.998,39.323,95.783,39.198z"/>
	<path fill="#F8359E" d="M74.699,42.225l-4.652-2.686c-0.215-0.124-0.331-0.423-0.258-0.667l0,0
		c0.073-0.244,0.306-0.341,0.522-0.217l4.652,2.686c0.215,0.124,0.331,0.423,0.258,0.667l0,0
		C75.148,42.252,74.914,42.349,74.699,42.225z"/>
	<path fill="#F8359E" d="M75.401,27.43l-3.42-1.975c-0.215-0.124-0.331-0.423-0.258-0.667l0,0c0.073-0.244,0.306-0.341,0.522-0.217
		l3.42,1.975c0.215,0.124,0.331,0.423,0.258,0.667l0,0C75.849,27.458,75.616,27.555,75.401,27.43z"/>
	<path fill="#E8975B" d="M70.416,46.266l-3.961-2.287c-0.215-0.124-0.331-0.423-0.258-0.667l0,0
		c0.073-0.244,0.306-0.341,0.522-0.217l3.961,2.287c0.215,0.124,0.331,0.423,0.258,0.667l0,0
		C70.864,46.293,70.631,46.39,70.416,46.266z"/>
</g>
<g>
	<path fill="#FFFFFF" d="M96.718,34.916l-1.695-0.979c-0.157-0.091-0.242-0.309-0.188-0.488l0,0
		c0.053-0.178,0.224-0.249,0.381-0.159l1.696,0.979c0.157,0.091,0.242,0.309,0.188,0.488l0,0
		C97.046,34.935,96.875,35.006,96.718,34.916z"/>
	<path fill="#FFFFFF" d="M99.952,36.783l-1.696-0.979c-0.157-0.091-0.242-0.309-0.188-0.488l0,0
		c0.053-0.178,0.224-0.249,0.381-0.159l1.696,0.979c0.157,0.091,0.242,0.309,0.188,0.488l0,0
		C100.28,36.803,100.109,36.874,99.952,36.783z"/>
	<path fill="#FFFFFF" d="M103.186,38.65l-1.695-0.979c-0.157-0.091-0.242-0.309-0.188-0.488l0,0
		c0.053-0.178,0.224-0.249,0.381-0.159l1.695,0.979c0.157,0.091,0.242,0.309,0.188,0.488l0,0
		C103.514,38.67,103.344,38.741,103.186,38.65z"/>
	<path fill="#F8359E" d="M104.776,39.569l-0.051-0.031c-0.157-0.091-0.242-0.309-0.188-0.488l0,0
		c0.053-0.178,0.224-0.249,0.381-0.159l0.051,0.031c0.157,0.091,0.242,0.309,0.188,0.488l0,0
		C105.104,39.589,104.933,39.66,104.776,39.569z"/>
</g>
</svg>
