<?xml version="1.0" encoding="utf-8"?>
<!-- Generator: Adobe Illustrator 24.0.0, SVG Export Plug-In . SVG Version: 6.00 Build 0)  -->
<svg version="1.1" id="Capa_1" xmlns="http://www.w3.org/2000/svg" xmlns:xlink="http://www.w3.org/1999/xlink" x="0px" y="0px"
	 viewBox="0 0 512 512" enable-background="new 0 0 512 512" xml:space="preserve">
<path fill="#FAE7CB" d="M481.391,335.216c-27.202-27.201-67.294-36.966-103.749-25.745l-36.551-36.552l159.708-159.707
	C508.022,105.989,512,96.385,512,86.17s-3.978-19.82-11.201-27.042l-47.927-47.927C445.649,3.977,436.045,0,425.83,0
	c-10.216,0-19.819,3.977-27.042,11.201L239.08,170.909l-36.551-36.552c11.221-36.454,1.456-76.547-25.745-103.749
	c-15.053-15.053-34.05-24.981-54.937-28.71c-20.4-3.643-41.171-1.167-60.065,7.158c-3.02,1.331-5.189,4.066-5.797,7.31
	c-0.607,3.243,0.424,6.578,2.758,8.912l47.709,47.708l-33.729,33.728L25.014,59.007c-2.334-2.334-5.671-3.362-8.912-2.758
	c-3.244,0.607-5.979,2.776-7.309,5.797c-8.325,18.895-10.8,39.665-7.159,60.065c3.729,20.887,13.657,39.884,28.711,54.938
	c27.201,27.2,67.296,36.966,103.749,25.745l36.551,36.551c0,0-91.74,91.74-122.32,122.321c-1.822,1.822-2.421,3.925-2.427,3.945
	L2.347,497.016c-1.19,3.589-0.253,7.543,2.421,10.216c1.906,1.905,4.461,2.929,7.072,2.929c1.052,0,2.113-0.166,3.144-0.508
	l131.278-43.508c2.064-0.589,4.072-2.47,4.072-2.47l122.32-122.32l36.552,36.552c-11.221,36.454-1.456,76.548,25.745,103.75
	c15.053,15.053,34.05,24.98,54.937,28.71c6.114,1.092,12.259,1.634,18.378,1.634c14.301,0,28.454-2.962,41.686-8.792
	c3.02-1.331,5.189-4.066,5.797-7.31c0.607-3.243-0.424-6.578-2.758-8.912l-47.709-47.708l33.729-33.729l47.708,47.708
	c2.334,2.334,5.669,3.37,8.912,2.758c3.244-0.607,5.979-2.776,7.309-5.797c8.325-18.895,10.801-39.665,7.159-60.065
	C506.372,369.266,496.444,350.27,481.391,335.216L481.391,335.216z M412.93,25.343c3.446-3.446,8.027-5.344,12.9-5.344
	s9.454,1.897,12.9,5.344l47.927,47.927c3.445,3.445,5.343,8.026,5.343,12.9c0,4.873-1.898,9.455-5.344,12.9l-32.447,32.447
	L380.483,57.79L412.93,25.343z M143.826,184.243c-1.91-1.91-4.467-2.929-7.073-2.929c-1.188,0-2.388,0.212-3.539,0.648
	c-30.698,11.624-65.526,4.146-88.729-19.057c-20.932-20.932-28.988-50.46-22.26-78.403l43.425,43.426
	c3.905,3.904,10.237,3.904,14.142,0l47.871-47.871c3.905-3.905,3.905-10.237,0-14.142L84.238,22.49
	c27.941-6.73,57.47,1.328,78.403,22.26c23.203,23.203,30.683,58.031,19.057,88.728c-1.393,3.679-0.501,7.832,2.28,10.613
	l40.959,40.959l-40.152,40.152L143.826,184.243z M27.595,484.405l14.465-43.648l29.181,29.181L27.595,484.405z M92.486,462.899
	l-43.385-43.385l10.686-32.244l64.942,64.942L92.486,462.899z M143.264,442.462l-29.792-29.792l97.884-97.884
	c3.905-3.905,3.905-10.237,0-14.142c-3.904-3.904-10.237-3.904-14.142,0L99.33,398.528l-29.793-29.792L366.341,71.932l0.807,0.807
	l28.984,28.985l-134.99,134.991c-3.905,3.905-3.905,10.237,0,14.142c1.952,1.952,4.512,2.929,7.071,2.929s5.119-0.977,7.071-2.929
	l134.99-134.991l29.792,29.793L143.264,442.462z M489.509,427.761l-43.425-43.425c-1.875-1.875-4.419-2.929-7.071-2.929
	s-5.196,1.054-7.071,2.929l-47.87,47.871c-3.905,3.905-3.905,10.237,0,14.142l43.425,43.426
	c-27.945,6.727-57.471-1.328-78.403-22.26c-23.203-23.203-30.683-58.031-19.057-88.729c1.393-3.679,0.501-7.832-2.281-10.613
	l-40.959-40.959l40.152-40.152l40.96,40.96c2.781,2.781,6.933,3.675,10.613,2.28c30.695-11.626,65.525-4.146,88.728,19.057
	C488.182,370.291,496.238,399.819,489.509,427.761L489.509,427.761z M236.378,285.621c-4.181,0-7.997-2.71-9.405-6.636
	c-1.388-3.872-0.2-8.321,2.936-10.987c3.276-2.785,8.092-3.113,11.745-0.869c3.506,2.154,5.319,6.422,4.523,10.442
	C245.264,282.186,241.085,285.621,236.378,285.621z"/>
</svg>
