<?xml version="1.0" encoding="utf-8"?>
<!-- Generator: Adobe Illustrator 24.0.0, SVG Export Plug-In . SVG Version: 6.00 Build 0)  -->
<svg version="1.1" id="Capa_1" xmlns="http://www.w3.org/2000/svg" xmlns:xlink="http://www.w3.org/1999/xlink" x="0px" y="0px"
	 viewBox="0 0 124 120" enable-background="new 0 0 124 120" xml:space="preserve">
<path opacity="0.6" fill="#020230" d="M67.045,113.02L9.675,79.898c-0.836-0.483-0.731-1.326,0.234-1.884l36.82-21.258
	c0.966-0.557,2.426-0.618,3.262-0.135l57.369,33.122c0.836,0.483,0.731,1.326-0.234,1.884l-36.82,21.258
	C69.342,113.442,67.881,113.503,67.045,113.02z"/>
<linearGradient id="SVGID_1_" gradientUnits="userSpaceOnUse" x1="0.2494" y1="85.1284" x2="116.3776" y2="85.1284">
	<stop  offset="0" style="stop-color:#E39A65"/>
	<stop  offset="1" style="stop-color:#E95F8D"/>
</linearGradient>
<path fill="url(#SVGID_1_)" d="M68.359,119c-0.671,0-1.314-0.139-1.805-0.423h0L1.079,80.775c-0.535-0.308-0.829-0.754-0.829-1.253
	c0-0.574,0.4-1.134,1.096-1.536l44.632-26.149c1.224-0.707,3.023-0.775,4.095-0.156l65.475,37.803
	c0.535,0.308,0.829,0.754,0.829,1.253c0,0.574-0.4,1.134-1.097,1.536l-44.632,26.149C69.985,118.804,69.153,119,68.359,119z
	 M48.276,51.999c-0.67,0-1.383,0.162-1.927,0.475L1.718,78.624c-0.457,0.264-0.729,0.599-0.729,0.897
	c0,0.288,0.25,0.493,0.459,0.614l65.476,37.802c0,0,0,0,0,0c0.836,0.483,2.372,0.413,3.353-0.154l44.632-26.149
	c0.457-0.264,0.729-0.599,0.729-0.897c0-0.287-0.25-0.492-0.459-0.613L49.704,52.32C49.33,52.105,48.817,51.999,48.276,51.999z"/>
</svg>
